<?xml version="1.0" encoding="UTF-8" standalone="no"?>
<!DOCTYPE svg PUBLIC "-//W3C//DTD SVG 1.1//EN"
 "http://www.w3.org/Graphics/SVG/1.1/DTD/svg11.dtd">
<!-- Generated by graphviz version 13.1.1 (20250719.2154)
 -->
<!-- Title: HostLifecycle Pages: 1 -->
<svg width="482pt" height="394pt"
 viewBox="0.00 0.00 482.00 394.00" xmlns="http://www.w3.org/2000/svg" xmlns:xlink="http://www.w3.org/1999/xlink">
<g id="graph0" class="graph" transform="scale(1 1) rotate(0) translate(4 390.48)">
<title>HostLifecycle</title>
<polygon fill="white" stroke="none" points="-4,4 -4,-390.48 477.77,-390.48 477.77,4 -4,4"/>
<!-- webui -->
<g id="node1" class="node">
<title>webui</title>
<ellipse fill="none" stroke="black" cx="37.21" cy="-359.61" rx="37.21" ry="18"/>
<text xml:space="preserve" text-anchor="middle" x="37.21" y="-353.81" font-family="Helvetica,sans-Serif" font-size="14.00">WebUI</text>
</g>
<!-- coordinator -->
<g id="node3" class="node">
<title>coordinator</title>
<ellipse fill="none" stroke="black" cx="140.21" cy="-245.74" rx="56.22" ry="18"/>
<text xml:space="preserve" text-anchor="middle" x="140.21" y="-239.94" font-family="Helvetica,sans-Serif" font-size="14.00">Coordinator</text>
</g>
<!-- webui&#45;&gt;coordinator -->
<g id="edge4" class="edge">
<title>webui&#45;&gt;coordinator</title>
<path fill="none" stroke="black" d="M30.9,-341.59C25.83,-324.75 21.43,-299.06 33.96,-281.74 43.95,-267.93 59.58,-259.47 75.81,-254.33"/>
<polygon fill="black" stroke="black" points="76.33,-257.81 85.05,-251.8 74.48,-251.06 76.33,-257.81"/>
<text xml:space="preserve" text-anchor="middle" x="74.08" y="-301.44" font-family="Times,serif" font-size="14.00">request/release</text>
<text xml:space="preserve" text-anchor="middle" x="74.08" y="-284.94" font-family="Times,serif" font-size="14.00">leases</text>
</g>
<!-- client -->
<g id="node2" class="node">
<title>client</title>
<ellipse fill="none" stroke="black" cx="283.21" cy="-359.61" rx="190.57" ry="26.87"/>
<text xml:space="preserve" text-anchor="middle" x="283.21" y="-361.31" font-family="Helvetica,sans-Serif" font-size="14.00">Client</text>
<text xml:space="preserve" text-anchor="middle" x="283.21" y="-346.31" font-family="Helvetica,sans-Serif" font-size="14.00">1 per task (e.g. backup of different folders)</text>
</g>
<!-- client&#45;&gt;coordinator -->
<g id="edge3" class="edge">
<title>client&#45;&gt;coordinator</title>
<path fill="none" stroke="black" d="M250.04,-332.66C225.71,-313.63 192.98,-288.02 169.59,-269.73"/>
<polygon fill="black" stroke="black" points="172.04,-267.2 162,-263.79 167.72,-272.71 172.04,-267.2"/>
<text xml:space="preserve" text-anchor="middle" x="264.64" y="-301.44" font-family="Times,serif" font-size="14.00">request/release</text>
<text xml:space="preserve" text-anchor="middle" x="264.64" y="-284.94" font-family="Times,serif" font-size="14.00">leases</text>
</g>
<!-- coordinator&#45;&gt;webui -->
<g id="edge2" class="edge">
<title>coordinator&#45;&gt;webui</title>
<path fill="none" stroke="black" d="M138.31,-264.17C135.89,-279.09 130.42,-300.37 118.21,-314.74 106.88,-328.07 98.61,-324.45 83.21,-332.74 79.03,-334.99 74.67,-337.38 70.36,-339.77"/>
<polygon fill="black" stroke="black" points="68.86,-336.6 61.84,-344.54 72.27,-342.71 68.86,-336.6"/>
<text xml:space="preserve" text-anchor="middle" x="151.21" y="-293.19" font-family="Times,serif" font-size="14.00">serves</text>
</g>
<!-- host -->
<g id="node4" class="node">
<title>host</title>
<ellipse fill="none" stroke="black" cx="120.21" cy="-18" rx="28.43" ry="18"/>
<text xml:space="preserve" text-anchor="middle" x="120.21" y="-12.2" font-family="Helvetica,sans-Serif" font-size="14.00">Host</text>
</g>
<!-- coordinator&#45;&gt;host -->
<g id="edge5" class="edge">
<title>coordinator&#45;&gt;host</title>
<path fill="none" stroke="black" d="M110.4,-230.07C101.46,-224.62 92.19,-217.77 85.21,-209.74 68.86,-190.94 67.25,-183.08 61.96,-158.74 56.89,-135.4 54.95,-127.83 61.96,-105 69.19,-81.44 85.3,-58.52 98.76,-42.27"/>
<polygon fill="black" stroke="black" points="101.04,-44.99 104.9,-35.12 95.73,-40.43 101.04,-44.99"/>
<text xml:space="preserve" text-anchor="middle" x="97.58" y="-135.07" font-family="Times,serif" font-size="14.00">WOL startup</text>
<text xml:space="preserve" text-anchor="middle" x="97.58" y="-118.57" font-family="Times,serif" font-size="14.00">(if ≥1 leases)</text>
</g>
<!-- agent -->
<g id="node5" class="node">
<title>agent</title>
<ellipse fill="none" stroke="black" cx="196.21" cy="-131.87" rx="53.74" ry="26.87"/>
<text xml:space="preserve" text-anchor="middle" x="196.21" y="-133.57" font-family="Helvetica,sans-Serif" font-size="14.00">Agent</text>
<text xml:space="preserve" text-anchor="middle" x="196.21" y="-118.57" font-family="Helvetica,sans-Serif" font-size="14.00">1 per host</text>
</g>
<!-- coordinator&#45;&gt;agent -->
<g id="edge6" class="edge">
<title>coordinator&#45;&gt;agent</title>
<path fill="none" stroke="black" d="M112.33,-229.88C105.1,-224.56 98.22,-217.83 94.21,-209.74 87.7,-196.6 86.14,-188.99 94.21,-176.74 97.38,-171.92 119.88,-162.02 142.94,-152.84"/>
<polygon fill="black" stroke="black" points="144.06,-156.16 152.1,-149.25 141.51,-149.65 144.06,-156.16"/>
<text xml:space="preserve" text-anchor="middle" x="130.21" y="-196.44" font-family="Times,serif" font-size="14.00">shutdown</text>
<text xml:space="preserve" text-anchor="middle" x="130.21" y="-179.94" font-family="Times,serif" font-size="14.00">(if =0 leases)</text>
</g>
<!-- coordinator&#45;&gt;agent -->
<g id="edge8" class="edge">
<title>coordinator&#45;&gt;agent</title>
<path fill="none" stroke="black" stroke-dasharray="5,2" d="M154.13,-227.91C158.34,-222.34 162.76,-215.97 166.21,-209.74 173.2,-197.11 179.34,-182.51 184.21,-169.45"/>
<polygon fill="black" stroke="black" points="187.39,-170.94 187.48,-160.34 180.8,-168.57 187.39,-170.94"/>
<text xml:space="preserve" text-anchor="middle" x="199.72" y="-196.44" font-family="Times,serif" font-size="14.00">WOL</text>
<text xml:space="preserve" text-anchor="middle" x="199.72" y="-179.94" font-family="Times,serif" font-size="14.00">startup</text>
</g>
<!-- host&#45;&gt;agent -->
<g id="edge1" class="edge">
<title>host&#45;&gt;agent</title>
<path fill="none" stroke="black" d="M143.26,-29.16C154.07,-35 166.3,-43.31 174.21,-54 182.73,-65.51 187.95,-80.22 191.15,-93.68"/>
<polygon fill="black" stroke="black" points="187.65,-94.03 193.09,-103.12 194.51,-92.62 187.65,-94.03"/>
<text xml:space="preserve" text-anchor="middle" x="240.66" y="-73.7" font-family="Times,serif" font-size="14.00">starts agent service</text>
<text xml:space="preserve" text-anchor="middle" x="240.66" y="-57.2" font-family="Times,serif" font-size="14.00">(on host boot)</text>
</g>
<!-- agent&#45;&gt;coordinator -->
<g id="edge9" class="edge">
<title>agent&#45;&gt;coordinator</title>
<path fill="none" stroke="black" d="M214.95,-157.17C224.77,-173.06 232.77,-193.75 222.21,-209.74 216.13,-218.94 207.08,-225.73 197.19,-230.74"/>
<polygon fill="black" stroke="black" points="195.81,-227.53 188.05,-234.74 198.62,-233.94 195.81,-227.53"/>
<text xml:space="preserve" text-anchor="middle" x="263.2" y="-196.44" font-family="Times,serif" font-size="14.00">reports status</text>
<text xml:space="preserve" text-anchor="middle" x="263.2" y="-179.94" font-family="Times,serif" font-size="14.00">(host online)</text>
</g>
<!-- agent&#45;&gt;host -->
<g id="edge7" class="edge">
<title>agent&#45;&gt;host</title>
<path fill="none" stroke="black" d="M151.85,-116.24C138.5,-109.52 125.37,-100.06 117.71,-87 110.75,-75.14 110.64,-60.01 112.58,-47.04"/>
<polygon fill="black" stroke="black" points="115.99,-47.86 114.51,-37.37 109.12,-46.49 115.99,-47.86"/>
<text xml:space="preserve" text-anchor="middle" x="143.96" y="-73.7" font-family="Times,serif" font-size="14.00">executes</text>
<text xml:space="preserve" text-anchor="middle" x="143.96" y="-57.2" font-family="Times,serif" font-size="14.00">shutdown</text>
</g>
</g>
</svg>
