<?xml version="1.0" encoding="UTF-8" standalone="no"?>
<!DOCTYPE svg PUBLIC "-//W3C//DTD SVG 1.1//EN"
 "http://www.w3.org/Graphics/SVG/1.1/DTD/svg11.dtd">
<!-- Generated by graphviz version 12.2.1 (20241206.2353)
 -->
<!-- Title: HostLifecycle Pages: 1 -->
<svg width="246pt" height="377pt"
 viewBox="0.00 0.00 245.60 376.74" xmlns="http://www.w3.org/2000/svg" xmlns:xlink="http://www.w3.org/1999/xlink">
<g id="graph0" class="graph" transform="scale(1 1) rotate(0) translate(4 372.74)">
<title>HostLifecycle</title>
<polygon fill="white" stroke="none" points="-4,4 -4,-372.74 241.6,-372.74 241.6,4 -4,4"/>
<!-- webui -->
<g id="node1" class="node">
<title>webui</title>
<ellipse fill="none" stroke="black" cx="84.45" cy="-350.74" rx="37.21" ry="18"/>
<text text-anchor="middle" x="84.45" y="-344.94" font-family="Helvetica,sans-Serif" font-size="14.00">WebUI</text>
</g>
<!-- coordinator -->
<g id="node2" class="node">
<title>coordinator</title>
<ellipse fill="none" stroke="black" cx="84.45" cy="-245.74" rx="56.22" ry="18"/>
<text text-anchor="middle" x="84.45" y="-239.94" font-family="Helvetica,sans-Serif" font-size="14.00">Coordinator</text>
</g>
<!-- webui&#45;&gt;coordinator -->
<g id="edge3" class="edge">
<title>webui&#45;&gt;coordinator</title>
<path fill="none" stroke="black" d="M55.54,-338.91C44.99,-333.38 34.18,-325.5 28.2,-314.74 21.08,-301.92 21.08,-294.56 28.2,-281.74 31.42,-275.94 36.05,-270.98 41.28,-266.77"/>
<polygon fill="black" stroke="black" points="43.03,-269.82 49.27,-261.25 39.05,-264.06 43.03,-269.82"/>
<text text-anchor="middle" x="69.83" y="-301.44" font-family="Times,serif" font-size="14.00">request startup/</text>
<text text-anchor="middle" x="69.83" y="-284.94" font-family="Times,serif" font-size="14.00">shutdown</text>
</g>
<!-- coordinator&#45;&gt;webui -->
<g id="edge2" class="edge">
<title>coordinator&#45;&gt;webui</title>
<path fill="none" stroke="black" d="M103.06,-262.83C108.06,-268.27 112.81,-274.76 115.45,-281.74 120.65,-295.45 120.65,-301.03 115.45,-314.74 113.96,-318.69 111.78,-322.48 109.28,-326.02"/>
<polygon fill="black" stroke="black" points="106.73,-323.6 103.05,-333.53 112.12,-328.07 106.73,-323.6"/>
<text text-anchor="middle" x="136.23" y="-293.19" font-family="Times,serif" font-size="14.00">serves</text>
</g>
<!-- host -->
<g id="node3" class="node">
<title>host</title>
<ellipse fill="none" stroke="black" cx="63.45" cy="-18" rx="28.43" ry="18"/>
<text text-anchor="middle" x="63.45" y="-12.2" font-family="Helvetica,sans-Serif" font-size="14.00">Host</text>
</g>
<!-- coordinator&#45;&gt;host -->
<g id="edge5" class="edge">
<title>coordinator&#45;&gt;host</title>
<path fill="none" stroke="black" d="M60.7,-229.08C53.12,-223.48 45.01,-216.8 38.45,-209.74 20.03,-189.92 12.91,-184.68 5.2,-158.74 -1.6,-135.85 -1.8,-127.83 5.2,-105 12.43,-81.44 28.55,-58.52 42,-42.27"/>
<polygon fill="black" stroke="black" points="44.28,-44.99 48.14,-35.12 38.97,-40.43 44.28,-44.99"/>
<text text-anchor="middle" x="40.83" y="-126.82" font-family="Times,serif" font-size="14.00">WOL startup</text>
</g>
<!-- agent -->
<g id="node4" class="node">
<title>agent</title>
<ellipse fill="none" stroke="black" cx="139.45" cy="-131.87" rx="53.74" ry="26.87"/>
<text text-anchor="middle" x="139.45" y="-133.57" font-family="Helvetica,sans-Serif" font-size="14.00">Agent</text>
<text text-anchor="middle" x="139.45" y="-118.57" font-family="Helvetica,sans-Serif" font-size="14.00">1 per host</text>
</g>
<!-- coordinator&#45;&gt;agent -->
<g id="edge4" class="edge">
<title>coordinator&#45;&gt;agent</title>
<path fill="none" stroke="black" d="M62.23,-228.84C56.49,-223.49 51.05,-217.01 47.95,-209.74 42.2,-196.25 40.14,-189.15 47.95,-176.74 52.84,-168.98 68.87,-160.28 86.19,-152.69"/>
<polygon fill="black" stroke="black" points="87.2,-156.06 95.06,-148.95 84.48,-149.61 87.2,-156.06"/>
<text text-anchor="middle" x="74.2" y="-188.19" font-family="Times,serif" font-size="14.00">shutdown</text>
</g>
<!-- coordinator&#45;&gt;agent -->
<g id="edge8" class="edge">
<title>coordinator&#45;&gt;agent</title>
<path fill="none" stroke="black" stroke-dasharray="5,2" d="M92.81,-227.75C100.5,-212.1 112.16,-188.38 121.9,-168.58"/>
<polygon fill="black" stroke="black" points="124.99,-170.22 126.26,-159.7 118.71,-167.13 124.99,-170.22"/>
<text text-anchor="middle" x="135.25" y="-196.44" font-family="Times,serif" font-size="14.00">WOL</text>
<text text-anchor="middle" x="135.25" y="-179.94" font-family="Times,serif" font-size="14.00">startup</text>
</g>
<!-- host&#45;&gt;agent -->
<g id="edge1" class="edge">
<title>host&#45;&gt;agent</title>
<path fill="none" stroke="black" d="M86.5,-29.16C97.32,-35 109.54,-43.31 117.45,-54 125.97,-65.51 131.2,-80.22 134.4,-93.68"/>
<polygon fill="black" stroke="black" points="130.9,-94.03 136.34,-103.12 137.75,-92.62 130.9,-94.03"/>
<text text-anchor="middle" x="183.91" y="-73.7" font-family="Times,serif" font-size="14.00">starts agent service</text>
<text text-anchor="middle" x="183.91" y="-57.2" font-family="Times,serif" font-size="14.00">(on host boot)</text>
</g>
<!-- agent&#45;&gt;coordinator -->
<g id="edge7" class="edge">
<title>agent&#45;&gt;coordinator</title>
<path fill="none" stroke="black" d="M155.84,-157.61C164.14,-173.5 170.53,-194.01 160.45,-209.74 155.1,-218.09 147.2,-224.48 138.48,-229.36"/>
<polygon fill="black" stroke="black" points="137.23,-226.08 129.75,-233.59 140.28,-232.38 137.23,-226.08"/>
<text text-anchor="middle" x="201.6" y="-196.44" font-family="Times,serif" font-size="14.00">reports status</text>
<text text-anchor="middle" x="201.6" y="-179.94" font-family="Times,serif" font-size="14.00">(host online)</text>
</g>
<!-- agent&#45;&gt;host -->
<g id="edge6" class="edge">
<title>agent&#45;&gt;host</title>
<path fill="none" stroke="black" d="M95.09,-116.24C81.74,-109.52 68.62,-100.06 60.95,-87 54,-75.14 53.88,-60.01 55.83,-47.04"/>
<polygon fill="black" stroke="black" points="59.23,-47.86 57.76,-37.37 52.37,-46.49 59.23,-47.86"/>
<text text-anchor="middle" x="87.2" y="-73.7" font-family="Times,serif" font-size="14.00">executes</text>
<text text-anchor="middle" x="87.2" y="-57.2" font-family="Times,serif" font-size="14.00">shutdown</text>
</g>
</g>
</svg>
