<?xml version="1.0" encoding="UTF-8" standalone="no"?>
<!DOCTYPE svg PUBLIC "-//W3C//DTD SVG 1.1//EN"
 "http://www.w3.org/Graphics/SVG/1.1/DTD/svg11.dtd">
<!-- Generated by graphviz version 14.0.0 (0)
 -->
<!-- Title: HostLifecycle Pages: 1 -->
<svg width="562pt" height="412pt"
 viewBox="0.00 0.00 562.00 412.00" xmlns="http://www.w3.org/2000/svg" xmlns:xlink="http://www.w3.org/1999/xlink">
<g id="graph0" class="graph" transform="scale(1 1) rotate(0) translate(4 407.71)">
<title>HostLifecycle</title>
<polygon fill="white" stroke="none" points="-4,4 -4,-407.71 557.82,-407.71 557.82,4 -4,4"/>
<!-- webui -->
<g id="node1" class="node">
<title>webui</title>
<ellipse fill="none" stroke="black" cx="43.32" cy="-373.66" rx="43.32" ry="18"/>
<text xml:space="preserve" text-anchor="middle" x="43.32" y="-368.98" font-family="Helvetica,sans-Serif" font-size="14.00">WebUI</text>
</g>
<!-- coordinator -->
<g id="node3" class="node">
<title>coordinator</title>
<ellipse fill="none" stroke="black" cx="173.32" cy="-255.1" rx="68.57" ry="18"/>
<text xml:space="preserve" text-anchor="middle" x="173.32" y="-250.43" font-family="Helvetica,sans-Serif" font-size="14.00">Coordinator</text>
</g>
<!-- webui&#45;&gt;coordinator -->
<g id="edge4" class="edge">
<title>webui&#45;&gt;coordinator</title>
<path fill="none" stroke="black" d="M36.99,-355.43C31.59,-337.46 26.73,-309.4 40.82,-291.1 48.98,-280.5 75.56,-272.46 102.79,-266.77"/>
<polygon fill="black" stroke="black" points="103.42,-270.22 112.55,-264.85 102.06,-263.35 103.42,-270.22"/>
<text xml:space="preserve" text-anchor="middle" x="94.07" y="-312.3" font-family="Helvetica,sans-Serif" font-size="14.00">request/release</text>
<text xml:space="preserve" text-anchor="middle" x="94.07" y="-295.05" font-family="Helvetica,sans-Serif" font-size="14.00">leases</text>
</g>
<!-- client -->
<g id="node2" class="node">
<title>client</title>
<ellipse fill="none" stroke="black" cx="329.32" cy="-373.66" rx="224.51" ry="30.05"/>
<text xml:space="preserve" text-anchor="middle" x="329.32" y="-377.61" font-family="Helvetica,sans-Serif" font-size="14.00">Client</text>
<text xml:space="preserve" text-anchor="middle" x="329.32" y="-360.36" font-family="Helvetica,sans-Serif" font-size="14.00">1 per task (e.g. backup of different folders)</text>
</g>
<!-- client&#45;&gt;coordinator -->
<g id="edge3" class="edge">
<title>client&#45;&gt;coordinator</title>
<path fill="none" stroke="black" d="M290.75,-343.85C264.03,-323.88 228.93,-297.65 204.08,-279.09"/>
<polygon fill="black" stroke="black" points="206.42,-276.47 196.31,-273.29 202.23,-282.08 206.42,-276.47"/>
<text xml:space="preserve" text-anchor="middle" x="318.54" y="-312.3" font-family="Helvetica,sans-Serif" font-size="14.00">request/release</text>
<text xml:space="preserve" text-anchor="middle" x="318.54" y="-295.05" font-family="Helvetica,sans-Serif" font-size="14.00">leases</text>
</g>
<!-- coordinator&#45;&gt;webui -->
<g id="edge2" class="edge">
<title>coordinator&#45;&gt;webui</title>
<path fill="none" stroke="black" d="M172.21,-273.53C170.3,-289.16 165.16,-311.7 151.32,-325.6 132.87,-344.13 119.29,-333.18 95.32,-343.6 89.18,-346.27 82.82,-349.45 76.75,-352.7"/>
<polygon fill="black" stroke="black" points="75.25,-349.53 68.21,-357.45 78.65,-355.65 75.25,-349.53"/>
<text xml:space="preserve" text-anchor="middle" x="191.81" y="-303.68" font-family="Helvetica,sans-Serif" font-size="14.00">serves</text>
</g>
<!-- host -->
<g id="node4" class="node">
<title>host</title>
<ellipse fill="none" stroke="black" cx="152.32" cy="-18" rx="33.32" ry="18"/>
<text xml:space="preserve" text-anchor="middle" x="152.32" y="-13.32" font-family="Helvetica,sans-Serif" font-size="14.00">Host</text>
</g>
<!-- coordinator&#45;&gt;host -->
<g id="edge5" class="edge">
<title>coordinator&#45;&gt;host</title>
<path fill="none" stroke="black" d="M135.84,-239.61C125.39,-234.3 114.64,-227.48 106.32,-219.1 87.82,-200.49 85.49,-192.11 79.32,-166.6 73.03,-140.64 70.22,-131.61 79.32,-106.5 88.61,-80.84 109.09,-57.43 126,-41.29"/>
<polygon fill="black" stroke="black" points="128.32,-43.91 133.32,-34.56 123.59,-38.75 128.32,-43.91"/>
<text xml:space="preserve" text-anchor="middle" x="125.82" y="-140.5" font-family="Helvetica,sans-Serif" font-size="14.00">WOL startup</text>
<text xml:space="preserve" text-anchor="middle" x="125.82" y="-123.25" font-family="Helvetica,sans-Serif" font-size="14.00">(if ≥1 leases)</text>
</g>
<!-- agent -->
<g id="node5" class="node">
<title>agent</title>
<ellipse fill="none" stroke="black" cx="243.32" cy="-136.55" rx="61.7" ry="30.05"/>
<text xml:space="preserve" text-anchor="middle" x="243.32" y="-140.5" font-family="Helvetica,sans-Serif" font-size="14.00">Agent</text>
<text xml:space="preserve" text-anchor="middle" x="243.32" y="-123.25" font-family="Helvetica,sans-Serif" font-size="14.00">1 per host</text>
</g>
<!-- coordinator&#45;&gt;agent -->
<g id="edge6" class="edge">
<title>coordinator&#45;&gt;agent</title>
<path fill="none" stroke="black" d="M137.15,-239.46C128.85,-234.31 121.08,-227.62 116.32,-219.1 108.83,-205.72 107.46,-197.12 116.32,-184.6 130.2,-164.98 144.75,-174.9 167.32,-166.6 173.03,-164.5 178.98,-162.28 184.92,-160.05"/>
<polygon fill="black" stroke="black" points="186.02,-163.38 194.13,-156.56 183.54,-156.83 186.02,-163.38"/>
<text xml:space="preserve" text-anchor="middle" x="162.82" y="-205.8" font-family="Helvetica,sans-Serif" font-size="14.00">shutdown</text>
<text xml:space="preserve" text-anchor="middle" x="162.82" y="-188.55" font-family="Helvetica,sans-Serif" font-size="14.00">(if =0 leases)</text>
</g>
<!-- coordinator&#45;&gt;agent -->
<g id="edge8" class="edge">
<title>coordinator&#45;&gt;agent</title>
<path fill="none" stroke="black" stroke-dasharray="5,2" d="M193.16,-237.58C198.89,-232.12 204.81,-225.74 209.32,-219.1 217.96,-206.39 225.05,-191.14 230.47,-177.28"/>
<polygon fill="black" stroke="black" points="233.73,-178.55 233.94,-167.95 227.17,-176.11 233.73,-178.55"/>
<text xml:space="preserve" text-anchor="middle" x="252.46" y="-205.8" font-family="Helvetica,sans-Serif" font-size="14.00">WOL</text>
<text xml:space="preserve" text-anchor="middle" x="252.46" y="-188.55" font-family="Helvetica,sans-Serif" font-size="14.00">startup</text>
</g>
<!-- host&#45;&gt;agent -->
<g id="edge1" class="edge">
<title>host&#45;&gt;agent</title>
<path fill="none" stroke="black" d="M181.09,-27.41C195.09,-32.88 211.07,-41.39 221.32,-54 230.73,-65.58 236.14,-80.85 239.23,-95.04"/>
<polygon fill="black" stroke="black" points="235.74,-95.4 240.98,-104.6 242.63,-94.14 235.74,-95.4"/>
<text xml:space="preserve" text-anchor="middle" x="306.14" y="-75.2" font-family="Helvetica,sans-Serif" font-size="14.00">starts agent service</text>
<text xml:space="preserve" text-anchor="middle" x="306.14" y="-57.95" font-family="Helvetica,sans-Serif" font-size="14.00">(on host boot)</text>
</g>
<!-- agent&#45;&gt;coordinator -->
<g id="edge9" class="edge">
<title>agent&#45;&gt;coordinator</title>
<path fill="none" stroke="black" d="M269.37,-163.93C282.64,-180.62 293.63,-202.18 281.32,-219.1 272.77,-230.85 260.19,-238.74 246.61,-244.01"/>
<polygon fill="black" stroke="black" points="245.88,-240.57 237.52,-247.07 248.11,-247.2 245.88,-240.57"/>
<text xml:space="preserve" text-anchor="middle" x="335.05" y="-205.8" font-family="Helvetica,sans-Serif" font-size="14.00">reports status</text>
<text xml:space="preserve" text-anchor="middle" x="335.05" y="-188.55" font-family="Helvetica,sans-Serif" font-size="14.00">(host online)</text>
</g>
<!-- agent&#45;&gt;host -->
<g id="edge7" class="edge">
<title>agent&#45;&gt;host</title>
<path fill="none" stroke="black" d="M195.37,-117.16C175.04,-108.3 154.72,-97.64 149.07,-88.5 141.55,-76.34 141.67,-60.57 143.99,-47.13"/>
<polygon fill="black" stroke="black" points="147.36,-48.06 146.11,-37.54 140.53,-46.55 147.36,-48.06"/>
<text xml:space="preserve" text-anchor="middle" x="183.19" y="-75.2" font-family="Helvetica,sans-Serif" font-size="14.00">executes</text>
<text xml:space="preserve" text-anchor="middle" x="183.19" y="-57.95" font-family="Helvetica,sans-Serif" font-size="14.00">shutdown</text>
</g>
</g>
</svg>
