<?xml version="1.0" encoding="UTF-8" standalone="no"?>
<!DOCTYPE svg PUBLIC "-//W3C//DTD SVG 1.1//EN"
 "http://www.w3.org/Graphics/SVG/1.1/DTD/svg11.dtd">
<!-- Generated by graphviz version 12.2.1 (20241206.2353)
 -->
<!-- Title: HostLifecycle Pages: 1 -->
<svg width="568pt" height="378pt"
 viewBox="0.00 0.00 568.32 377.98" xmlns="http://www.w3.org/2000/svg" xmlns:xlink="http://www.w3.org/1999/xlink">
<g id="graph0" class="graph" transform="scale(1 1) rotate(0) translate(4 373.98)">
<title>HostLifecycle</title>
<polygon fill="white" stroke="none" points="-4,4 -4,-373.98 564.32,-373.98 564.32,4 -4,4"/>
<!-- client -->
<g id="node1" class="node">
<title>client</title>
<ellipse fill="none" stroke="black" cx="251.21" cy="-343.11" rx="53.21" ry="26.87"/>
<text text-anchor="middle" x="251.21" y="-344.81" font-family="Helvetica,sans-Serif" font-size="14.00">Client</text>
<text text-anchor="middle" x="251.21" y="-329.81" font-family="Helvetica,sans-Serif" font-size="14.00">1 per task</text>
</g>
<!-- coordinator -->
<g id="node3" class="node">
<title>coordinator</title>
<ellipse fill="none" stroke="black" cx="251.21" cy="-245.74" rx="56.22" ry="18"/>
<text text-anchor="middle" x="251.21" y="-239.94" font-family="Helvetica,sans-Serif" font-size="14.00">Coordinator</text>
</g>
<!-- client&#45;&gt;coordinator -->
<g id="edge1" class="edge">
<title>client&#45;&gt;coordinator</title>
<path fill="none" stroke="black" d="M251.21,-315.8C251.21,-303.35 251.21,-288.44 251.21,-275.68"/>
<polygon fill="black" stroke="black" points="254.71,-275.75 251.21,-265.75 247.71,-275.75 254.71,-275.75"/>
<text text-anchor="middle" x="309.33" y="-284.94" font-family="Times,serif" font-size="14.00">request/release leases</text>
</g>
<!-- webui -->
<g id="node2" class="node">
<title>webui</title>
<ellipse fill="none" stroke="black" cx="37.21" cy="-131.87" rx="37.21" ry="18"/>
<text text-anchor="middle" x="37.21" y="-126.07" font-family="Helvetica,sans-Serif" font-size="14.00">WebUI</text>
</g>
<!-- webui&#45;&gt;coordinator -->
<g id="edge2" class="edge">
<title>webui&#45;&gt;coordinator</title>
<path fill="none" stroke="black" d="M42.09,-150.11C48.04,-167.89 59.88,-195.03 79.96,-209.74 96.96,-222.2 145.95,-231.45 187.2,-237.29"/>
<polygon fill="black" stroke="black" points="186.71,-240.76 197.09,-238.65 187.66,-233.83 186.71,-240.76"/>
<text text-anchor="middle" x="138.08" y="-188.19" font-family="Times,serif" font-size="14.00">request/release leases</text>
</g>
<!-- coordinator&#45;&gt;webui -->
<g id="edge9" class="edge">
<title>coordinator&#45;&gt;webui</title>
<path fill="none" stroke="black" d="M194.84,-244.51C132.59,-242.91 38.16,-236.06 15.46,-209.74 3.23,-195.56 9.95,-174.96 19.03,-158.66"/>
<polygon fill="black" stroke="black" points="21.82,-160.8 24.05,-150.45 15.84,-157.15 21.82,-160.8"/>
<text text-anchor="middle" x="32.33" y="-188.19" font-family="Times,serif" font-size="14.00">serves</text>
</g>
<!-- agent -->
<g id="node4" class="node">
<title>agent</title>
<ellipse fill="none" stroke="black" cx="299.21" cy="-131.87" rx="53.74" ry="26.87"/>
<text text-anchor="middle" x="299.21" y="-133.57" font-family="Helvetica,sans-Serif" font-size="14.00">Agent</text>
<text text-anchor="middle" x="299.21" y="-118.57" font-family="Helvetica,sans-Serif" font-size="14.00">1 per host</text>
</g>
<!-- coordinator&#45;&gt;agent -->
<g id="edge4" class="edge">
<title>coordinator&#45;&gt;agent</title>
<path fill="none" stroke="black" d="M223.33,-229.88C216.1,-224.56 209.22,-217.83 205.21,-209.74 198.7,-196.6 197.33,-189.11 205.21,-176.74 213.38,-163.91 226.39,-154.77 240.16,-148.28"/>
<polygon fill="black" stroke="black" points="241.52,-151.51 249.38,-144.41 238.8,-145.06 241.52,-151.51"/>
<text text-anchor="middle" x="241.21" y="-196.44" font-family="Times,serif" font-size="14.00">shutdown</text>
<text text-anchor="middle" x="241.21" y="-179.94" font-family="Times,serif" font-size="14.00">(if =0 leases)</text>
</g>
<!-- coordinator&#45;&gt;agent -->
<g id="edge7" class="edge">
<title>coordinator&#45;&gt;agent</title>
<path fill="none" stroke="black" stroke-dasharray="5,2" d="M265.48,-228.1C269.72,-222.53 274.06,-216.12 277.21,-209.74 283.34,-197.32 288.04,-182.91 291.48,-169.94"/>
<polygon fill="black" stroke="black" points="294.82,-171.02 293.83,-160.47 288.03,-169.33 294.82,-171.02"/>
<text text-anchor="middle" x="325.14" y="-188.19" font-family="Times,serif" font-size="14.00">WOL startup</text>
</g>
<!-- host -->
<g id="node5" class="node">
<title>host</title>
<ellipse fill="none" stroke="black" cx="361.21" cy="-18" rx="28.43" ry="18"/>
<text text-anchor="middle" x="361.21" y="-12.2" font-family="Helvetica,sans-Serif" font-size="14.00">Host</text>
</g>
<!-- coordinator&#45;&gt;host -->
<g id="edge3" class="edge">
<title>coordinator&#45;&gt;host</title>
<path fill="none" stroke="black" d="M306.63,-242.66C359.63,-239.4 434.2,-231.06 453.21,-209.74 499.32,-158.02 500.21,-110.57 460.21,-54 446.74,-34.95 421.99,-26.2 400.61,-22.21"/>
<polygon fill="black" stroke="black" points="401.4,-18.79 390.99,-20.72 400.33,-25.71 401.4,-18.79"/>
<text text-anchor="middle" x="524.69" y="-135.07" font-family="Times,serif" font-size="14.00">WOL startup</text>
<text text-anchor="middle" x="524.69" y="-118.57" font-family="Times,serif" font-size="14.00">(if ≥1 lease)</text>
</g>
<!-- agent&#45;&gt;coordinator -->
<g id="edge6" class="edge">
<title>agent&#45;&gt;coordinator</title>
<path fill="none" stroke="black" d="M341.12,-148.93C352.97,-155.64 364.47,-164.74 371.21,-176.74 378.39,-189.53 380.01,-198.01 371.21,-209.74 358.63,-226.51 338.45,-235.61 318.21,-240.44"/>
<polygon fill="black" stroke="black" points="317.59,-236.99 308.49,-242.4 318.98,-243.85 317.59,-236.99"/>
<text text-anchor="middle" x="413.22" y="-196.44" font-family="Times,serif" font-size="14.00">reports status</text>
<text text-anchor="middle" x="413.22" y="-179.94" font-family="Times,serif" font-size="14.00">(host online)</text>
</g>
<!-- agent&#45;&gt;host -->
<g id="edge5" class="edge">
<title>agent&#45;&gt;host</title>
<path fill="none" stroke="black" d="M260.92,-112.61C251.18,-105.99 241.93,-97.49 236.46,-87 229.68,-73.99 227.6,-65.69 236.46,-54 246.91,-40.21 289.86,-30.35 322.47,-24.68"/>
<polygon fill="black" stroke="black" points="322.72,-28.19 332.01,-23.1 321.57,-21.28 322.72,-28.19"/>
<text text-anchor="middle" x="287.83" y="-65.45" font-family="Times,serif" font-size="14.00">executes shutdown</text>
</g>
<!-- host&#45;&gt;agent -->
<g id="edge8" class="edge">
<title>host&#45;&gt;agent</title>
<path fill="none" stroke="black" d="M357.76,-36.33C354.42,-50.6 348.49,-71.01 339.21,-87 336.82,-91.11 334,-95.17 330.97,-99.05"/>
<polygon fill="black" stroke="black" points="328.38,-96.69 324.62,-106.59 333.74,-101.19 328.38,-96.69"/>
<text text-anchor="middle" x="404.52" y="-73.7" font-family="Times,serif" font-size="14.00">starts agent service</text>
<text text-anchor="middle" x="404.52" y="-57.2" font-family="Times,serif" font-size="14.00">(on host boot)</text>
</g>
</g>
</svg>
