<?xml version="1.0" encoding="UTF-8" standalone="no"?>
<!DOCTYPE svg PUBLIC "-//W3C//DTD SVG 1.1//EN"
 "http://www.w3.org/Graphics/SVG/1.1/DTD/svg11.dtd">
<!-- Generated by graphviz version 12.2.1 (20241206.2353)
 -->
<!-- Title: HostLifecycle Pages: 1 -->
<svg width="483pt" height="394pt"
 viewBox="0.00 0.00 482.85 394.48" xmlns="http://www.w3.org/2000/svg" xmlns:xlink="http://www.w3.org/1999/xlink">
<g id="graph0" class="graph" transform="scale(1 1) rotate(0) translate(4 390.48)">
<title>HostLifecycle</title>
<polygon fill="white" stroke="none" points="-4,4 -4,-390.48 478.85,-390.48 478.85,4 -4,4"/>
<!-- webui -->
<g id="node1" class="node">
<title>webui</title>
<ellipse fill="none" stroke="black" cx="38.28" cy="-359.61" rx="37.21" ry="18"/>
<text text-anchor="middle" x="38.28" y="-353.81" font-family="Helvetica,sans-Serif" font-size="14.00">WebUI</text>
</g>
<!-- coordinator -->
<g id="node3" class="node">
<title>coordinator</title>
<ellipse fill="none" stroke="black" cx="141.28" cy="-245.74" rx="56.22" ry="18"/>
<text text-anchor="middle" x="141.28" y="-239.94" font-family="Helvetica,sans-Serif" font-size="14.00">Coordinator</text>
</g>
<!-- webui&#45;&gt;coordinator -->
<g id="edge4" class="edge">
<title>webui&#45;&gt;coordinator</title>
<path fill="none" stroke="black" d="M31.97,-341.59C26.9,-324.75 22.5,-299.06 35.03,-281.74 45.02,-267.93 60.65,-259.47 76.88,-254.33"/>
<polygon fill="black" stroke="black" points="77.4,-257.81 86.12,-251.8 75.55,-251.06 77.4,-257.81"/>
<text text-anchor="middle" x="75.16" y="-301.44" font-family="Times,serif" font-size="14.00">request/release</text>
<text text-anchor="middle" x="75.16" y="-284.94" font-family="Times,serif" font-size="14.00">leases</text>
</g>
<!-- client -->
<g id="node2" class="node">
<title>client</title>
<ellipse fill="none" stroke="black" cx="284.28" cy="-359.61" rx="190.57" ry="26.87"/>
<text text-anchor="middle" x="284.28" y="-361.31" font-family="Helvetica,sans-Serif" font-size="14.00">Client</text>
<text text-anchor="middle" x="284.28" y="-346.31" font-family="Helvetica,sans-Serif" font-size="14.00">1 per task (e.g. backup of different folders)</text>
</g>
<!-- client&#45;&gt;coordinator -->
<g id="edge3" class="edge">
<title>client&#45;&gt;coordinator</title>
<path fill="none" stroke="black" d="M251.11,-332.66C226.79,-313.63 194.05,-288.02 170.66,-269.73"/>
<polygon fill="black" stroke="black" points="173.11,-267.2 163.07,-263.79 168.79,-272.71 173.11,-267.2"/>
<text text-anchor="middle" x="265.71" y="-301.44" font-family="Times,serif" font-size="14.00">request/release</text>
<text text-anchor="middle" x="265.71" y="-284.94" font-family="Times,serif" font-size="14.00">leases</text>
</g>
<!-- coordinator&#45;&gt;webui -->
<g id="edge2" class="edge">
<title>coordinator&#45;&gt;webui</title>
<path fill="none" stroke="black" d="M139.38,-264.17C136.96,-279.09 131.49,-300.37 119.28,-314.74 107.95,-328.07 99.68,-324.45 84.28,-332.74 80.1,-334.99 75.74,-337.38 71.43,-339.77"/>
<polygon fill="black" stroke="black" points="69.93,-336.6 62.91,-344.54 73.34,-342.71 69.93,-336.6"/>
<text text-anchor="middle" x="152.28" y="-293.19" font-family="Times,serif" font-size="14.00">serves</text>
</g>
<!-- agent -->
<g id="node4" class="node">
<title>agent</title>
<ellipse fill="none" stroke="black" cx="133.28" cy="-26.87" rx="53.74" ry="26.87"/>
<text text-anchor="middle" x="133.28" y="-28.57" font-family="Helvetica,sans-Serif" font-size="14.00">Agent</text>
<text text-anchor="middle" x="133.28" y="-13.57" font-family="Helvetica,sans-Serif" font-size="14.00">1 per host</text>
</g>
<!-- coordinator&#45;&gt;agent -->
<g id="edge6" class="edge">
<title>coordinator&#45;&gt;agent</title>
<path fill="none" stroke="black" d="M102.92,-232.16C70.66,-219.3 26.66,-195.9 6.28,-158.74 -18.13,-114.22 37.88,-74.12 83.13,-50.38"/>
<polygon fill="black" stroke="black" points="84.5,-53.61 91.83,-45.96 81.33,-47.37 84.5,-53.61"/>
<text text-anchor="middle" x="42.28" y="-143.94" font-family="Times,serif" font-size="14.00">shutdown</text>
<text text-anchor="middle" x="42.28" y="-127.44" font-family="Times,serif" font-size="14.00">(if =0 leases)</text>
</g>
<!-- coordinator&#45;&gt;agent -->
<g id="edge9" class="edge">
<title>coordinator&#45;&gt;agent</title>
<path fill="none" stroke="black" stroke-dasharray="5,2" d="M132.83,-227.46C125.01,-210.45 113.95,-183.49 109.53,-158.74 103.81,-126.72 111.58,-90.31 119.72,-64.04"/>
<polygon fill="black" stroke="black" points="122.93,-65.47 122.72,-54.88 116.28,-63.29 122.93,-65.47"/>
<text text-anchor="middle" x="127.91" y="-143.94" font-family="Times,serif" font-size="14.00">WOL</text>
<text text-anchor="middle" x="127.91" y="-127.44" font-family="Times,serif" font-size="14.00">startup</text>
</g>
<!-- host -->
<g id="node5" class="node">
<title>host</title>
<ellipse fill="none" stroke="black" cx="183.28" cy="-140.74" rx="28.43" ry="18"/>
<text text-anchor="middle" x="183.28" y="-134.94" font-family="Helvetica,sans-Serif" font-size="14.00">Host</text>
</g>
<!-- coordinator&#45;&gt;host -->
<g id="edge5" class="edge">
<title>coordinator&#45;&gt;host</title>
<path fill="none" stroke="black" d="M148.22,-227.73C154.73,-211.76 164.58,-187.59 172.19,-168.94"/>
<polygon fill="black" stroke="black" points="175.37,-170.41 175.9,-159.83 168.89,-167.77 175.37,-170.41"/>
<text text-anchor="middle" x="204.12" y="-196.44" font-family="Times,serif" font-size="14.00">WOL startup</text>
<text text-anchor="middle" x="204.12" y="-179.94" font-family="Times,serif" font-size="14.00">(if ≥1 lease)</text>
</g>
<!-- agent&#45;&gt;coordinator -->
<g id="edge8" class="edge">
<title>agent&#45;&gt;coordinator</title>
<path fill="none" stroke="black" d="M184.98,-34.51C228.61,-41.3 286.18,-53.46 300.28,-71.74 340.81,-124.29 293.95,-166.89 243.28,-209.74 231.03,-220.1 215.55,-227.45 200.38,-232.64"/>
<polygon fill="black" stroke="black" points="199.38,-229.28 190.88,-235.6 201.47,-235.96 199.38,-229.28"/>
<text text-anchor="middle" x="350.47" y="-143.94" font-family="Times,serif" font-size="14.00">reports status</text>
<text text-anchor="middle" x="350.47" y="-127.44" font-family="Times,serif" font-size="14.00">(host online)</text>
</g>
<!-- agent&#45;&gt;host -->
<g id="edge7" class="edge">
<title>agent&#45;&gt;host</title>
<path fill="none" stroke="black" d="M183.93,-36.41C204.38,-42.62 226.02,-53.32 238.28,-71.74 246.41,-83.95 245.34,-91.88 238.28,-104.74 233.54,-113.37 225.68,-120.17 217.36,-125.4"/>
<polygon fill="black" stroke="black" points="215.92,-122.19 208.86,-130.09 219.31,-128.32 215.92,-122.19"/>
<text text-anchor="middle" x="270.23" y="-91.44" font-family="Times,serif" font-size="14.00">executes</text>
<text text-anchor="middle" x="270.23" y="-74.94" font-family="Times,serif" font-size="14.00">shutdown</text>
</g>
<!-- host&#45;&gt;agent -->
<g id="edge1" class="edge">
<title>host&#45;&gt;agent</title>
<path fill="none" stroke="black" d="M160.65,-129.36C150.85,-123.6 140.37,-115.41 134.78,-104.74 128.5,-92.76 126.96,-78.22 127.39,-65.03"/>
<polygon fill="black" stroke="black" points="130.85,-65.61 128.09,-55.39 123.87,-65.1 130.85,-65.61"/>
<text text-anchor="middle" x="186.53" y="-91.44" font-family="Times,serif" font-size="14.00">starts agent service</text>
<text text-anchor="middle" x="186.53" y="-74.94" font-family="Times,serif" font-size="14.00">(on host boot)</text>
</g>
</g>
</svg>
