<?xml version="1.0" encoding="UTF-8" standalone="no"?>
<!DOCTYPE svg PUBLIC "-//W3C//DTD SVG 1.1//EN"
 "http://www.w3.org/Graphics/SVG/1.1/DTD/svg11.dtd">
<!-- Generated by graphviz version 12.2.1 (20241206.2353)
 -->
<!-- Title: HostLifecycle Pages: 1 -->
<svg width="482pt" height="378pt"
 viewBox="0.00 0.00 481.77 377.98" xmlns="http://www.w3.org/2000/svg" xmlns:xlink="http://www.w3.org/1999/xlink">
<g id="graph0" class="graph" transform="scale(1 1) rotate(0) translate(4 373.98)">
<title>HostLifecycle</title>
<polygon fill="white" stroke="none" points="-4,4 -4,-373.98 477.77,-373.98 477.77,4 -4,4"/>
<!-- webui -->
<g id="node1" class="node">
<title>webui</title>
<ellipse fill="none" stroke="black" cx="37.21" cy="-343.11" rx="37.21" ry="18"/>
<text text-anchor="middle" x="37.21" y="-337.31" font-family="Helvetica,sans-Serif" font-size="14.00">WebUI</text>
</g>
<!-- coordinator -->
<g id="node3" class="node">
<title>coordinator</title>
<ellipse fill="none" stroke="black" cx="176.21" cy="-245.74" rx="56.22" ry="18"/>
<text text-anchor="middle" x="176.21" y="-239.94" font-family="Helvetica,sans-Serif" font-size="14.00">Coordinator</text>
</g>
<!-- webui&#45;&gt;coordinator -->
<g id="edge4" class="edge">
<title>webui&#45;&gt;coordinator</title>
<path fill="none" stroke="black" d="M30.69,-324.93C26.89,-311.74 24.51,-293.8 33.96,-281.74 44.04,-268.88 79.83,-260.11 112.98,-254.57"/>
<polygon fill="black" stroke="black" points="113.26,-258.07 122.59,-253.05 112.17,-251.16 113.26,-258.07"/>
<text text-anchor="middle" x="92.08" y="-284.94" font-family="Times,serif" font-size="14.00">request/release leases</text>
</g>
<!-- client -->
<g id="node2" class="node">
<title>client</title>
<ellipse fill="none" stroke="black" cx="283.21" cy="-343.11" rx="190.57" ry="26.87"/>
<text text-anchor="middle" x="283.21" y="-344.81" font-family="Helvetica,sans-Serif" font-size="14.00">Client</text>
<text text-anchor="middle" x="283.21" y="-329.81" font-family="Helvetica,sans-Serif" font-size="14.00">1 per task (e.g. backup of different folders)</text>
</g>
<!-- client&#45;&gt;coordinator -->
<g id="edge3" class="edge">
<title>client&#45;&gt;coordinator</title>
<path fill="none" stroke="black" d="M254.25,-316.3C238.17,-301.97 218.31,-284.26 202.64,-270.3"/>
<polygon fill="black" stroke="black" points="205.35,-268.03 195.56,-263.98 200.69,-273.25 205.35,-268.03"/>
<text text-anchor="middle" x="291.04" y="-284.94" font-family="Times,serif" font-size="14.00">request/release leases</text>
</g>
<!-- coordinator&#45;&gt;webui -->
<g id="edge2" class="edge">
<title>coordinator&#45;&gt;webui</title>
<path fill="none" stroke="black" d="M172.99,-263.92C170,-275.23 164.4,-289.52 154.21,-298.24 129.47,-319.4 113.44,-304.16 83.21,-316.24 78.49,-318.13 73.65,-320.41 68.97,-322.83"/>
<polygon fill="black" stroke="black" points="67.5,-319.65 60.41,-327.52 70.86,-325.79 67.5,-319.65"/>
<text text-anchor="middle" x="182.85" y="-284.94" font-family="Times,serif" font-size="14.00">serves</text>
</g>
<!-- agent -->
<g id="node4" class="node">
<title>agent</title>
<ellipse fill="none" stroke="black" cx="171.21" cy="-26.87" rx="53.74" ry="26.87"/>
<text text-anchor="middle" x="171.21" y="-28.57" font-family="Helvetica,sans-Serif" font-size="14.00">Agent</text>
<text text-anchor="middle" x="171.21" y="-13.57" font-family="Helvetica,sans-Serif" font-size="14.00">1 per host</text>
</g>
<!-- coordinator&#45;&gt;agent -->
<g id="edge6" class="edge">
<title>coordinator&#45;&gt;agent</title>
<path fill="none" stroke="black" d="M138.67,-231.92C107.12,-218.91 64.08,-195.41 44.21,-158.74 20.02,-114.1 75.97,-74.03 121.16,-50.32"/>
<polygon fill="black" stroke="black" points="122.5,-53.57 129.83,-45.92 119.33,-47.33 122.5,-53.57"/>
<text text-anchor="middle" x="80.21" y="-143.94" font-family="Times,serif" font-size="14.00">shutdown</text>
<text text-anchor="middle" x="80.21" y="-127.44" font-family="Times,serif" font-size="14.00">(if =0 leases)</text>
</g>
<!-- coordinator&#45;&gt;agent -->
<g id="edge9" class="edge">
<title>coordinator&#45;&gt;agent</title>
<path fill="none" stroke="black" stroke-dasharray="5,2" d="M168.82,-227.68C161.85,-210.61 151.91,-183.41 147.96,-158.74 142.84,-126.78 150.31,-90.56 158.11,-64.34"/>
<polygon fill="black" stroke="black" points="161.43,-65.44 161.1,-54.85 154.76,-63.34 161.43,-65.44"/>
<text text-anchor="middle" x="183.58" y="-135.69" font-family="Times,serif" font-size="14.00">WOL startup</text>
</g>
<!-- host -->
<g id="node5" class="node">
<title>host</title>
<ellipse fill="none" stroke="black" cx="256.21" cy="-140.74" rx="28.43" ry="18"/>
<text text-anchor="middle" x="256.21" y="-134.94" font-family="Helvetica,sans-Serif" font-size="14.00">Host</text>
</g>
<!-- coordinator&#45;&gt;host -->
<g id="edge5" class="edge">
<title>coordinator&#45;&gt;host</title>
<path fill="none" stroke="black" d="M189.06,-228.19C202.06,-211.46 222.3,-185.4 237.16,-166.26"/>
<polygon fill="black" stroke="black" points="239.87,-168.48 243.24,-158.43 234.35,-164.18 239.87,-168.48"/>
<text text-anchor="middle" x="263.67" y="-196.44" font-family="Times,serif" font-size="14.00">WOL startup</text>
<text text-anchor="middle" x="263.67" y="-179.94" font-family="Times,serif" font-size="14.00">(if ≥1 lease)</text>
</g>
<!-- agent&#45;&gt;coordinator -->
<g id="edge8" class="edge">
<title>agent&#45;&gt;coordinator</title>
<path fill="none" stroke="black" d="M224.56,-31.16C281.74,-35.94 367.05,-47.07 387.21,-71.74 432.65,-127.34 363.17,-170.24 303.21,-209.74 284.1,-222.33 260.53,-230.42 238.9,-235.61"/>
<polygon fill="black" stroke="black" points="238.28,-232.17 229.28,-237.75 239.8,-239 238.28,-232.17"/>
<text text-anchor="middle" x="434.95" y="-143.94" font-family="Times,serif" font-size="14.00">reports status</text>
<text text-anchor="middle" x="434.95" y="-127.44" font-family="Times,serif" font-size="14.00">(host online)</text>
</g>
<!-- agent&#45;&gt;host -->
<g id="edge7" class="edge">
<title>agent&#45;&gt;host</title>
<path fill="none" stroke="black" d="M221.86,-36.41C242.31,-42.62 263.94,-53.32 276.21,-71.74 284.69,-84.47 280.22,-100.87 273.37,-114.38"/>
<polygon fill="black" stroke="black" points="270.53,-112.3 268.6,-122.72 276.61,-115.78 270.53,-112.3"/>
<text text-anchor="middle" x="332.21" y="-83.19" font-family="Times,serif" font-size="14.00">executes shutdown</text>
</g>
<!-- host&#45;&gt;agent -->
<g id="edge1" class="edge">
<title>host&#45;&gt;agent</title>
<path fill="none" stroke="black" d="M232.84,-130.3C208.46,-120.41 173.63,-106.09 172.71,-104.74 164.99,-93.38 163.24,-78.74 163.9,-65.29"/>
<polygon fill="black" stroke="black" points="167.37,-65.68 164.86,-55.39 160.41,-65 167.37,-65.68"/>
<text text-anchor="middle" x="224.46" y="-91.44" font-family="Times,serif" font-size="14.00">starts agent service</text>
<text text-anchor="middle" x="224.46" y="-74.94" font-family="Times,serif" font-size="14.00">(on host boot)</text>
</g>
</g>
</svg>
