<svg id="svg" version="1.1" xmlns="http://www.w3.org/2000/svg" xmlns:xlink="http://www.w3.org/1999/xlink" width="400" height="400" viewBox="0, 0, 400,400"><g id="svgg"><path id="path0" d="M0.000 200.000 L 0.000 400.000 200.000 400.000 L 400.000 400.000 400.000 200.000 L 400.000 0.000 200.000 0.000 L 0.000 0.000 0.000 200.000 M316.797 25.912 C 347.756 31.182,367.904 52.469,372.549 84.818 C 373.609 92.205,373.622 303.159,372.562 311.234 C 367.786 347.633,345.523 371.197,312.695 374.600 C 304.758 375.423,86.994 374.943,82.813 374.093 C 49.436 367.313,29.724 343.028,26.951 305.273 C 26.151 294.380,26.625 90.320,27.463 84.855 C 32.869 49.603,56.041 27.873,91.016 25.260 C 99.083 24.658,313.056 25.276,316.797 25.912 M197.165 50.488 C 195.750 51.769,175.455 74.640,173.161 77.539 C 171.398 79.766,171.211 80.889,172.378 82.245 L 173.328 83.350 180.231 82.903 C 187.684 82.420,188.192 82.471,188.476 83.734 C 188.579 84.194,188.797 92.892,188.961 103.062 L 189.258 121.554 190.180 122.301 C 191.366 123.261,208.274 123.457,209.548 122.526 C 210.563 121.783,210.887 119.167,210.914 111.489 C 210.927 107.818,211.054 100.024,211.196 94.168 C 211.491 82.043,211.456 82.173,214.350 82.569 C 227.664 84.394,231.291 82.600,226.289 76.665 C 210.939 58.452,202.095 49.219,200.000 49.219 C 198.932 49.219,198.211 49.542,197.165 50.488 M94.922 94.901 C 88.301 95.245,85.141 96.981,82.926 101.492 L 81.836 103.711 81.734 177.718 C 81.619 261.799,81.325 254.423,84.929 258.027 C 88.807 261.905,76.324 261.508,198.438 261.635 C 274.535 261.714,306.390 261.623,308.163 261.320 C 313.492 260.412,317.143 257.192,318.118 252.539 C 318.822 249.183,318.563 104.907,317.850 102.863 C 315.866 97.175,312.393 95.294,303.125 94.884 C 287.182 94.179,220.881 94.468,220.178 95.246 C 219.241 96.281,219.213 108.219,220.145 109.152 C 220.695 109.702,224.915 109.766,260.752 109.766 C 303.295 109.766,302.073 109.711,303.412 111.681 C 304.063 112.639,304.107 116.311,304.196 177.344 C 304.298 247.015,304.414 243.058,302.217 244.689 L 301.113 245.508 200.068 245.358 C 90.630 245.195,97.467 245.345,96.534 243.085 C 96.199 242.271,96.110 225.485,96.186 177.278 L 96.289 112.563 97.266 111.513 C 98.863 109.796,98.437 109.816,139.716 109.588 C 176.381 109.385,179.530 109.317,179.980 108.711 C 180.845 107.548,180.652 95.990,179.754 95.178 C 179.021 94.514,106.919 94.279,94.922 94.901 M197.900 132.605 C 193.038 134.338,192.969 134.699,192.969 158.480 L 192.969 178.393 193.877 180.114 C 196.470 185.029,203.888 184.556,206.543 179.307 C 207.801 176.819,207.920 138.829,206.678 136.094 C 205.227 132.901,201.371 131.368,197.900 132.605 M177.085 142.933 C 160.684 148.909,150.104 172.991,155.222 192.700 C 164.303 227.668,207.512 239.213,233.022 213.487 C 252.454 193.890,249.811 159.990,227.721 145.496 C 221.897 141.674,218.359 141.831,216.401 145.996 C 214.584 149.862,215.361 152.268,219.509 155.619 C 244.950 176.174,232.382 214.323,200.195 214.242 C 167.734 214.161,154.929 175.784,180.642 155.643 C 185.286 152.005,186.277 148.820,183.867 145.279 C 181.998 142.534,180.040 141.856,177.085 142.933 M194.399 268.736 L 172.196 268.945 171.500 269.805 C 171.049 270.363,170.298 273.313,169.363 278.203 C 168.570 282.350,167.665 287.061,167.352 288.672 C 166.750 291.774,166.171 292.565,164.476 292.597 C 145.929 292.948,143.223 293.451,141.504 296.860 C 140.278 299.292,140.283 302.683,141.515 304.116 L 142.405 305.150 199.867 305.153 C 241.373 305.154,257.556 305.034,258.143 304.720 C 260.071 303.688,260.067 298.711,258.136 295.999 C 256.449 293.631,254.737 293.247,244.475 292.936 C 232.031 292.560,233.625 293.875,231.262 282.031 C 229.347 272.433,228.754 270.252,227.841 269.454 C 226.871 268.607,221.118 268.483,194.399 268.736 " stroke="none" fill="#faf9f5" fill-rule="evenodd"></path><path id="path1" d="M91.016 25.260 C 56.041 27.873,32.869 49.603,27.463 84.855 C 26.625 90.320,26.151 294.380,26.951 305.273 C 29.724 343.028,49.436 367.313,82.813 374.093 C 86.994 374.943,304.758 375.423,312.695 374.600 C 345.523 371.197,367.786 347.633,372.562 311.234 C 373.622 303.159,373.609 92.205,372.549 84.818 C 367.904 52.469,347.756 31.182,316.797 25.912 C 313.056 25.276,99.083 24.658,91.016 25.260 M202.836 50.488 C 205.014 52.458,219.737 68.891,226.289 76.665 C 231.291 82.600,227.664 84.394,214.350 82.569 C 211.456 82.173,211.491 82.043,211.196 94.168 C 211.054 100.024,210.927 107.818,210.914 111.489 C 210.887 119.167,210.563 121.783,209.548 122.526 C 208.274 123.457,191.366 123.261,190.180 122.301 L 189.258 121.554 188.961 103.062 C 188.797 92.892,188.579 84.194,188.476 83.734 C 188.192 82.471,187.684 82.420,180.231 82.903 L 173.328 83.350 172.378 82.245 C 170.592 80.169,170.206 80.727,185.080 63.867 C 197.655 49.613,198.056 49.219,200.000 49.219 C 201.068 49.219,201.790 49.542,202.836 50.488 M179.754 95.178 C 180.652 95.990,180.845 107.548,179.980 108.711 C 179.530 109.317,176.381 109.385,139.716 109.588 C 98.437 109.816,98.863 109.796,97.266 111.513 L 96.289 112.563 96.186 177.278 C 96.110 225.485,96.199 242.271,96.534 243.085 C 97.467 245.345,90.630 245.195,200.068 245.358 L 301.113 245.508 302.217 244.689 C 304.414 243.058,304.298 247.015,304.196 177.344 C 304.107 116.311,304.063 112.639,303.412 111.681 C 302.073 109.711,303.295 109.766,260.752 109.766 C 224.915 109.766,220.695 109.702,220.145 109.152 C 219.213 108.219,219.241 96.281,220.178 95.246 C 220.881 94.468,287.182 94.179,303.125 94.884 C 312.393 95.294,315.866 97.175,317.850 102.863 C 318.563 104.907,318.822 249.183,318.118 252.539 C 317.143 257.192,313.492 260.412,308.163 261.320 C 306.390 261.623,274.535 261.714,198.438 261.635 C 76.324 261.508,88.807 261.905,84.929 258.027 C 81.325 254.423,81.619 261.799,81.734 177.718 L 81.836 103.711 82.926 101.492 C 85.141 96.981,88.301 95.245,94.922 94.901 C 106.919 94.279,179.021 94.514,179.754 95.178 M202.148 132.468 C 204.384 133.088,205.842 134.255,206.678 136.094 C 207.920 138.829,207.801 176.819,206.543 179.307 C 203.888 184.556,196.470 185.029,193.877 180.114 L 192.969 178.393 192.969 158.480 C 192.969 136.832,193.005 136.422,195.123 134.369 C 197.200 132.356,199.498 131.734,202.148 132.468 M182.031 143.315 C 186.593 146.594,186.051 151.406,180.642 155.643 C 165.797 167.270,162.709 185.558,173.025 200.749 C 185.557 219.203,214.698 219.012,227.343 200.392 C 237.453 185.505,234.317 167.583,219.509 155.619 C 216.400 153.107,215.493 151.688,215.528 149.390 C 215.752 134.600,236.789 147.161,243.549 166.121 C 254.139 195.823,231.763 227.344,200.087 227.344 C 165.587 227.344,143.360 191.659,158.761 160.994 C 164.654 149.260,177.123 139.787,182.031 143.315 M227.841 269.454 C 228.754 270.252,229.347 272.433,231.262 282.031 C 233.625 293.875,232.031 292.560,244.475 292.936 C 254.737 293.247,256.449 293.631,258.136 295.999 C 260.067 298.711,260.071 303.688,258.143 304.720 C 257.556 305.034,241.373 305.154,199.867 305.153 L 142.405 305.150 141.515 304.116 C 140.283 302.683,140.278 299.292,141.504 296.860 C 143.223 293.451,145.929 292.948,164.476 292.597 C 166.171 292.565,166.750 291.774,167.352 288.672 C 167.665 287.061,168.570 282.350,169.363 278.203 C 170.298 273.313,171.049 270.363,171.500 269.805 L 172.196 268.945 194.399 268.736 C 221.118 268.483,226.871 268.607,227.841 269.454 " stroke="none" fill="#133f5f" fill-rule="evenodd"></path><path id="path2" d="" stroke="none" fill="#04091e" fill-rule="evenodd"></path></g></svg>