<?xml version="1.0" encoding="UTF-8" standalone="no"?>
<!DOCTYPE svg PUBLIC "-//W3C//DTD SVG 1.1//EN"
 "http://www.w3.org/Graphics/SVG/1.1/DTD/svg11.dtd">
<!-- Generated by graphviz version 14.0.0 (0)
 -->
<!-- Title: HostLifecycle Pages: 1 -->
<svg width="294pt" height="416pt"
 viewBox="0.00 0.00 294.00 416.00" xmlns="http://www.w3.org/2000/svg" xmlns:xlink="http://www.w3.org/1999/xlink">
<g id="graph0" class="graph" transform="scale(1 1) rotate(0) translate(4 412.14)">
<title>HostLifecycle</title>
<polygon fill="white" stroke="none" points="-4,4 -4,-412.14 289.67,-412.14 289.67,4 -4,4"/>
<!-- webui -->
<g id="node1" class="node">
<title>webui</title>
<ellipse fill="none" stroke="black" cx="93.4" cy="-388.7" rx="42.6" ry="19.45"/>
<text xml:space="preserve" text-anchor="middle" x="93.4" y="-385.15" font-family="Inter" font-size="14.00">WebUI</text>
</g>
<!-- coordinator -->
<g id="node2" class="node">
<title>coordinator</title>
<ellipse fill="none" stroke="black" cx="93.4" cy="-274.8" rx="67" ry="19.45"/>
<text xml:space="preserve" text-anchor="middle" x="93.4" y="-271.25" font-family="Inter" font-size="14.00">Coordinator</text>
</g>
<!-- webui&#45;&gt;coordinator -->
<g id="edge3" class="edge">
<title>webui&#45;&gt;coordinator</title>
<path fill="none" stroke="black" d="M58.23,-377.37C45.61,-371.77 32.69,-363.43 25.4,-351.25 16.5,-336.38 16.5,-327.12 25.4,-312.25 29.29,-305.76 34.76,-300.37 40.94,-295.89"/>
<polygon fill="black" stroke="black" points="42.48,-299.05 49.1,-290.78 38.77,-293.12 42.48,-299.05"/>
<text xml:space="preserve" text-anchor="middle" x="79.4" y="-337.95" font-family="Inter" font-size="14.00">request startup/</text>
<text xml:space="preserve" text-anchor="middle" x="79.4" y="-318.45" font-family="Inter" font-size="14.00">shutdown</text>
</g>
<!-- coordinator&#45;&gt;webui -->
<g id="edge2" class="edge">
<title>coordinator&#45;&gt;webui</title>
<path fill="none" stroke="black" d="M121.5,-292.84C127.9,-298.19 133.86,-304.71 137.4,-312.25 144.78,-327.94 144.78,-335.56 137.4,-351.25 134.93,-356.5 131.3,-361.26 127.15,-365.47"/>
<polygon fill="black" stroke="black" points="125.06,-362.64 119.87,-371.88 129.69,-367.9 125.06,-362.64"/>
<text xml:space="preserve" text-anchor="middle" x="164.31" y="-328.2" font-family="Inter" font-size="14.00">serves</text>
</g>
<!-- host -->
<g id="node3" class="node">
<title>host</title>
<ellipse fill="none" stroke="black" cx="67.4" cy="-19.45" rx="33.06" ry="19.45"/>
<text xml:space="preserve" text-anchor="middle" x="67.4" y="-15.9" font-family="Inter" font-size="14.00">Host</text>
</g>
<!-- coordinator&#45;&gt;host -->
<g id="edge5" class="edge">
<title>coordinator&#45;&gt;host</title>
<path fill="none" stroke="black" d="M63.51,-257.08C55.1,-251.5 46.36,-244.79 39.4,-237.36 19.36,-215.95 13.81,-208.67 6.15,-180.36 -1.56,-151.84 -2.3,-142.2 6.15,-113.89 13.76,-88.41 30.79,-63.42 44.96,-45.7"/>
<polygon fill="black" stroke="black" points="47.41,-48.24 51.08,-38.3 42.01,-43.78 47.41,-48.24"/>
<text xml:space="preserve" text-anchor="middle" x="47.78" y="-143.57" font-family="Inter" font-size="14.00">WOL startup</text>
</g>
<!-- agent -->
<g id="node4" class="node">
<title>agent</title>
<ellipse fill="none" stroke="black" cx="157.4" cy="-147.12" rx="59.04" ry="33.23"/>
<text xml:space="preserve" text-anchor="middle" x="157.4" y="-153.32" font-family="Inter" font-size="14.00">Agent</text>
<text xml:space="preserve" text-anchor="middle" x="157.4" y="-133.82" font-family="Inter" font-size="14.00">1 per host</text>
</g>
<!-- coordinator&#45;&gt;agent -->
<g id="edge4" class="edge">
<title>coordinator&#45;&gt;agent</title>
<path fill="none" stroke="black" d="M65.46,-256.74C59.1,-251.39 53.18,-244.88 49.65,-237.36 42.3,-221.66 40.34,-212.98 49.65,-198.36 51.34,-195.71 75.79,-184.22 100.96,-172.9"/>
<polygon fill="black" stroke="black" points="102.27,-176.15 109.97,-168.87 99.42,-169.76 102.27,-176.15"/>
<text xml:space="preserve" text-anchor="middle" x="83.03" y="-214.31" font-family="Inter" font-size="14.00">shutdown</text>
</g>
<!-- coordinator&#45;&gt;agent -->
<g id="edge8" class="edge">
<title>coordinator&#45;&gt;agent</title>
<path fill="none" stroke="black" stroke-dasharray="5,2" d="M105.59,-255.55C109.23,-249.82 113.12,-243.41 116.4,-237.36 121.21,-228.48 130.35,-208.73 138.77,-190.05"/>
<polygon fill="black" stroke="black" points="141.96,-191.51 142.86,-180.95 135.57,-188.64 141.96,-191.51"/>
<text xml:space="preserve" text-anchor="middle" x="158.22" y="-224.06" font-family="Inter" font-size="14.00">WOL</text>
<text xml:space="preserve" text-anchor="middle" x="158.22" y="-204.56" font-family="Inter" font-size="14.00">startup</text>
</g>
<!-- host&#45;&gt;agent -->
<g id="edge1" class="edge">
<title>host&#45;&gt;agent</title>
<path fill="none" stroke="black" d="M96.24,-29.63C109.99,-35.39 125.54,-44.2 135.4,-56.89 145.48,-69.87 151.01,-86.85 154.02,-102.51"/>
<polygon fill="black" stroke="black" points="150.52,-102.79 155.56,-112.11 157.43,-101.68 150.52,-102.79"/>
<text xml:space="preserve" text-anchor="middle" x="217.31" y="-82.59" font-family="Inter" font-size="14.00">starts agent service</text>
<text xml:space="preserve" text-anchor="middle" x="217.31" y="-63.09" font-family="Inter" font-size="14.00">(on host boot)</text>
</g>
<!-- agent&#45;&gt;coordinator -->
<g id="edge7" class="edge">
<title>agent&#45;&gt;coordinator</title>
<path fill="none" stroke="black" d="M180.28,-178.12C191.24,-196.39 199.59,-219.56 187.4,-237.36 180.66,-247.21 170.83,-254.4 160.05,-259.64"/>
<polygon fill="black" stroke="black" points="158.74,-256.4 150.88,-263.51 161.46,-262.85 158.74,-256.4"/>
<text xml:space="preserve" text-anchor="middle" x="239.55" y="-224.06" font-family="Inter" font-size="14.00">reports status</text>
<text xml:space="preserve" text-anchor="middle" x="239.55" y="-204.56" font-family="Inter" font-size="14.00">(host online)</text>
</g>
<!-- agent&#45;&gt;host -->
<g id="edge6" class="edge">
<title>agent&#45;&gt;host</title>
<path fill="none" stroke="black" d="M110.68,-126.28C90.49,-116.67 70.21,-105.21 64.65,-95.89 56.56,-82.3 56.71,-64.75 59.13,-49.99"/>
<polygon fill="black" stroke="black" points="62.52,-50.88 61.13,-40.37 55.67,-49.45 62.52,-50.88"/>
<text xml:space="preserve" text-anchor="middle" x="98.03" y="-82.59" font-family="Inter" font-size="14.00">executes</text>
<text xml:space="preserve" text-anchor="middle" x="98.03" y="-63.09" font-family="Inter" font-size="14.00">shutdown</text>
</g>
</g>
</svg>
