<svg height="400" viewBox="0 0 400 400" width="400" xmlns="http://www.w3.org/2000/svg">
    <defs>
        <style type="text/css"><![CDATA[
            /* Expose two CSS variables that a page can override when the SVG is inlined. 
            Each class has a sensible fallback. */
            .fill-fg { fill: var(--shuthost-icon-fg, #007a4d); }
            .fill-bg { fill: var(--shuthost-icon-bg, rgba(0,0,0,0)); }
            @media (prefers-color-scheme: dark) {
                .fill-fg { fill: var(--shuthost-icon-fg, #ffffff); }
                .fill-bg { fill: var(--shuthost-icon-bg, rgba(0,0,0,0)); }
            }
        ]]></style>
    </defs>
    <g fill-rule="evenodd">
        <path
            d="m0 200v200h200 200v-200-200h-200-200zm316.797-174.088c30.959 5.27 51.107 26.557 55.752 58.906 1.06 7.387 1.073 218.341.013 226.416-4.776 36.399-27.039 59.963-59.867 63.366-7.937.823-225.701.343-229.882-.507-33.377-6.78-53.089-31.065-55.862-68.82-.8-10.893-.326-214.953.512-220.418 5.406-35.252 28.578-56.982 63.553-59.595 8.067-.602 222.04.016 225.781.652m-119.632 24.576c-1.415 1.281-21.71 24.152-24.004 27.051-1.763 2.227-1.95 3.35-.783 4.706l.95 1.105 6.903-.447c7.453-.483 7.961-.432 8.245.831.103.46.321 9.158.485 19.328l.297 18.492.922.747c1.186.96 18.094 1.156 19.368.225 1.015-.743 1.339-3.359 1.366-11.037.013-3.671.14-11.465.282-17.321.295-12.125.26-11.995 3.154-11.599 13.314 1.825 16.941.031 11.939-5.904-15.35-18.213-24.194-27.446-26.289-27.446-1.068 0-1.789.323-2.835 1.269m-102.243 44.413c-6.621.344-9.781 2.08-11.996 6.591l-1.09 2.219-.102 74.007c-.115 84.081-.409 76.705 3.195 80.309 3.878 3.878-8.605 3.481 113.509 3.608 76.097.079 107.952-.012 109.725-.315 5.329-.908 8.98-4.128 9.955-8.781.704-3.356.445-147.632-.268-149.676-1.984-5.688-5.457-7.569-14.725-7.979-15.943-.705-82.244-.416-82.947.362-.937 1.035-.965 12.973-.033 13.906.55.55 4.77.614 40.607.614 42.543 0 41.321-.055 42.66 1.915.651.958.695 4.63.784 65.663.102 69.671.218 65.714-1.979 67.345l-1.104.819-101.045-.15c-109.438-.163-102.601-.013-103.534-2.273-.335-.814-.424-17.6-.348-65.807l.103-64.715.977-1.05c1.597-1.717 1.171-1.697 42.45-1.925 36.665-.203 39.814-.271 40.264-.877.865-1.163.672-12.721-.226-13.533-.733-.664-72.835-.899-84.832-.277m102.978 37.704c-4.862 1.733-4.931 2.094-4.931 25.875v19.913l.908 1.721c2.593 4.915 10.011 4.442 12.666-.807 1.258-2.488 1.377-40.478.135-43.213-1.451-3.193-5.307-4.726-8.778-3.489m-20.815 10.328c-16.401 5.976-26.981 30.058-21.863 49.767 9.081 34.968 52.29 46.513 77.8 20.787 19.432-19.597 16.789-53.497-5.301-67.991-5.824-3.822-9.362-3.665-11.32.5-1.817 3.866-1.04 6.272 3.108 9.623 25.441 20.555 12.873 58.704-19.314 58.623-32.461-.081-45.266-38.458-19.553-58.599 4.644-3.638 5.635-6.823 3.225-10.364-1.869-2.745-3.827-3.423-6.782-2.346m17.314 125.803-22.203.209-.696.86c-.451.558-1.202 3.508-2.137 8.398-.793 4.147-1.698 8.858-2.011 10.469-.602 3.102-1.181 3.893-2.876 3.925-18.547.351-21.253.854-22.972 4.263-1.226 2.432-1.221 5.823.011 7.256l.89 1.034 57.462.003c41.506.001 57.689-.119 58.276-.433 1.928-1.032 1.924-6.009-.007-8.721-1.687-2.368-3.399-2.752-13.661-3.063-12.444-.376-10.85.939-13.213-10.905-1.915-9.598-2.508-11.779-3.421-12.577-.97-.847-6.723-.971-33.442-.718"
            class="fill-bg" />
        <path
            d="m91.016 25.26c-34.975 2.613-58.147 24.343-63.553 59.595-.838 5.465-1.312 209.525-.512 220.418 2.773 37.755 22.485 62.04 55.862 68.82 4.181.85 221.945 1.33 229.882.507 32.828-3.403 55.091-26.967 59.867-63.366 1.06-8.075 1.047-219.029-.013-226.416-4.645-32.349-24.793-53.636-55.752-58.906-3.741-.636-217.714-1.254-225.781-.652m111.82 25.228c2.178 1.97 16.901 18.403 23.453 26.177 5.002 5.935 1.375 7.729-11.939 5.904-2.894-.396-2.859-.526-3.154 11.599-.142 5.856-.269 13.65-.282 17.321-.027 7.678-.351 10.294-1.366 11.037-1.274.931-18.182.735-19.368-.225l-.922-.747-.297-18.492c-.164-10.17-.382-18.868-.485-19.328-.284-1.263-.792-1.314-8.245-.831l-6.903.447-.95-1.105c-1.786-2.076-2.172-1.518 12.702-18.378 12.575-14.254 12.976-14.648 14.92-14.648 1.068 0 1.79.323 2.836 1.269m-23.082 44.69c.898.812 1.091 12.37.226 13.533-.45.606-3.599.674-40.264.877-41.279.228-40.853.208-42.45 1.925l-.977 1.05-.103 64.715c-.076 48.207.013 64.993.348 65.807.933 2.26-5.904 2.11 103.534 2.273l101.045.15 1.104-.819c2.197-1.631 2.081 2.326 1.979-67.345-.089-61.033-.133-64.705-.784-65.663-1.339-1.97-.117-1.915-42.66-1.915-35.837 0-40.057-.064-40.607-.614-.932-.933-.904-12.871.033-13.906.703-.778 67.004-1.067 82.947-.362 9.268.41 12.741 2.291 14.725 7.979.713 2.044.972 146.32.268 149.676-.975 4.653-4.626 7.873-9.955 8.781-1.773.303-33.628.394-109.725.315-122.114-.127-109.631.27-113.509-3.608-3.604-3.604-3.31 3.772-3.195-80.309l.102-74.007 1.09-2.219c2.215-4.511 5.375-6.247 11.996-6.591 11.997-.622 84.099-.387 84.832.277m22.394 37.29c2.236.62 3.694 1.787 4.53 3.626 1.242 2.735 1.123 40.725-.135 43.213-2.655 5.249-10.073 5.722-12.666.807l-.908-1.721v-19.913c0-21.648.036-22.058 2.154-24.111 2.077-2.013 4.375-2.635 7.025-1.901m-20.117 10.847c4.562 3.279 4.02 8.091-1.389 12.328-14.845 11.627-17.933 29.915-7.617 45.106 12.532 18.454 41.673 18.263 54.318-.357 10.11-14.887 6.974-32.809-7.834-44.773-3.109-2.512-4.016-3.931-3.981-6.229.224-14.79 21.261-2.229 28.021 16.731 10.59 29.702-11.786 61.223-43.462 61.223-34.5 0-56.727-35.685-41.326-66.35 5.893-11.734 18.362-21.207 23.27-17.679m45.81 126.139c.913.798 1.506 2.979 3.421 12.577 2.363 11.844.769 10.529 13.213 10.905 10.262.311 11.974.695 13.661 3.063 1.931 2.712 1.935 7.689.007 8.721-.587.314-16.77.434-58.276.433l-57.462-.003-.89-1.034c-1.232-1.433-1.237-4.824-.011-7.256 1.719-3.409 4.425-3.912 22.972-4.263 1.695-.032 2.274-.823 2.876-3.925.313-1.611 1.218-6.322 2.011-10.469.935-4.89 1.686-7.84 2.137-8.398l.696-.86 22.203-.209c26.719-.253 32.472-.129 33.442.718"
            class="fill-fg" />
    </g>
</svg>