<svg height="400" viewBox="0 0 400 400" width="400" xmlns="http://www.w3.org/2000/svg">
    <defs>
        <filter id="shadow" x="-50%" y="-50%" width="200%" height="200%">
            <feDropShadow dx="0" dy="2" stdDeviation="2" flood-color="#000" flood-opacity="0.45"/>
        </filter>
        <style type="text/css"><![CDATA[
            /* Neutral default color with a light outline for contrast on light backgrounds */
            .fill {
                fill: #2b2b2b;
                /* thinner, subtle grey outline so it doesn't stick out */
                stroke: rgba(200,200,200,0.6);
                stroke-width: 2;
                stroke-linejoin: round;
                stroke-linecap: round;
                filter: url(#shadow);
            }

            /* In dark mode, invert fill/stroke for good contrast */
            @media (prefers-color-scheme: dark) {
                .fill {
                    fill: #e6e6e6;
                    /* dark-mode outline: slightly darker grey, subtle */
                    stroke: rgba(40,40,40,0.6);
                }
            }
        ]]></style>
    </defs>
    <g>
        <path
            d="m91.016 25.26c-34.975 2.613-58.147 24.343-63.553 59.595-.838 5.465-1.312 209.525-.512 220.418 2.773 37.755 22.485 62.04 55.862 68.82 4.181.85 221.945 1.33 229.882.507 32.828-3.403 55.091-26.967 59.867-63.366 1.06-8.075 1.047-219.029-.013-226.416-4.645-32.349-24.793-53.636-55.752-58.906-3.741-.636-217.714-1.254-225.781-.652m111.82 25.228c2.178 1.97 16.901 18.403 23.453 26.177 5.002 5.935 1.375 7.729-11.939 5.904-2.894-.396-2.859-.526-3.154 11.599-.142 5.856-.269 13.65-.282 17.321-.027 7.678-.351 10.294-1.366 11.037-1.274.931-18.182.735-19.368-.225l-.922-.747-.297-18.492c-.164-10.17-.382-18.868-.485-19.328-.284-1.263-.792-1.314-8.245-.831l-6.903.447-.95-1.105c-1.786-2.076-2.172-1.518 12.702-18.378 12.575-14.254 12.976-14.648 14.92-14.648 1.068 0 1.79.323 2.836 1.269m-23.082 44.69c.898.812 1.091 12.37.226 13.533-.45.606-3.599.674-40.264.877-41.279.228-40.853.208-42.45 1.925l-.977 1.05-.103 64.715c-.076 48.207.013 64.993.348 65.807.933 2.26-5.904 2.11 103.534 2.273l101.045.15 1.104-.819c2.197-1.631 2.081 2.326 1.979-67.345-.089-61.033-.133-64.705-.784-65.663-1.339-1.97-.117-1.915-42.66-1.915-35.837 0-40.057-.064-40.607-.614-.932-.933-.904-12.871.033-13.906.703-.778 67.004-1.067 82.947-.362 9.268.41 12.741 2.291 14.725 7.979.713 2.044.972 146.32.268 149.676-.975 4.653-4.626 7.873-9.955 8.781-1.773.303-33.628.394-109.725.315-122.114-.127-109.631.27-113.509-3.608-3.604-3.604-3.31 3.772-3.195-80.309l.102-74.007 1.09-2.219c2.215-4.511 5.375-6.247 11.996-6.591 11.997-.622 84.099-.387 84.832.277m22.394 37.29c2.236.62 3.694 1.787 4.53 3.626 1.242 2.735 1.123 40.725-.135 43.213-2.655 5.249-10.073 5.722-12.666.807l-.908-1.721v-19.913c0-21.648.036-22.058 2.154-24.111 2.077-2.013 4.375-2.635 7.025-1.901m-20.117 10.847c4.562 3.279 4.02 8.091-1.389 12.328-14.845 11.627-17.933 29.915-7.617 45.106 12.532 18.454 41.673 18.263 54.318-.357 10.11-14.887 6.974-32.809-7.834-44.773-3.109-2.512-4.016-3.931-3.981-6.229.224-14.79 21.261-2.229 28.021 16.731 10.59 29.702-11.786 61.223-43.462 61.223-34.5 0-56.727-35.685-41.326-66.35 5.893-11.734 18.362-21.207 23.27-17.679m45.81 126.139c.913.798 1.506 2.979 3.421 12.577 2.363 11.844.769 10.529 13.213 10.905 10.262.311 11.974.695 13.661 3.063 1.931 2.712 1.935 7.689.007 8.721-.587.314-16.77.434-58.276.433l-57.462-.003-.89-1.034c-1.232-1.433-1.237-4.824-.011-7.256 1.719-3.409 4.425-3.912 22.972-4.263 1.695-.032 2.274-.823 2.876-3.925.313-1.611 1.218-6.322 2.011-10.469.935-4.89 1.686-7.84 2.137-8.398l.696-.86 22.203-.209c26.719-.253 32.472-.129 33.442.718"
            class="fill" />
    </g>
</svg>