<?xml version="1.0" encoding="UTF-8" standalone="no"?>
<!DOCTYPE svg PUBLIC "-//W3C//DTD SVG 1.1//EN"
 "http://www.w3.org/Graphics/SVG/1.1/DTD/svg11.dtd">
<!-- Generated by graphviz version 14.1.1 (0)
 -->
<!-- Title: HostLifecycle Pages: 1 -->
<svg width="286pt" height="397pt"
 viewBox="0.00 0.00 286.00 397.00" xmlns="http://www.w3.org/2000/svg" xmlns:xlink="http://www.w3.org/1999/xlink">
<g id="graph0" class="graph" transform="scale(1 1) rotate(0) translate(4 392.53)">
<title>HostLifecycle</title>
<polygon fill="white" stroke="none" points="-4,4 -4,-392.53 281.95,-392.53 281.95,4 -4,4"/>
<!-- webui -->
<g id="node1" class="node">
<title>webui</title>
<ellipse fill="none" stroke="black" cx="90.58" cy="-370.15" rx="42.07" ry="18.38"/>
<text xml:space="preserve" text-anchor="middle" x="90.58" y="-365.85" font-family="Inter" font-size="14.00">WebUI</text>
</g>
<!-- coordinator -->
<g id="node2" class="node">
<title>coordinator</title>
<ellipse fill="none" stroke="black" cx="90.58" cy="-261.38" rx="66.47" ry="18.38"/>
<text xml:space="preserve" text-anchor="middle" x="90.58" y="-257.08" font-family="Inter" font-size="14.00">Coordinator</text>
</g>
<!-- webui&#45;&gt;coordinator -->
<g id="edge3" class="edge">
<title>webui&#45;&gt;coordinator</title>
<path fill="none" stroke="black" d="M55.94,-359.24C43.5,-353.83 30.77,-345.71 23.58,-333.76 15.32,-320.06 15.32,-311.47 23.58,-297.76 27.45,-291.33 32.94,-286.01 39.11,-281.62"/>
<polygon fill="black" stroke="black" points="40.57,-284.83 47.27,-276.62 36.91,-278.86 40.57,-284.83"/>
<text xml:space="preserve" text-anchor="middle" x="76.08" y="-320.46" font-family="Inter" font-size="14.00">request startup/</text>
<text xml:space="preserve" text-anchor="middle" x="76.08" y="-302.46" font-family="Inter" font-size="14.00">shutdown</text>
</g>
<!-- coordinator&#45;&gt;webui -->
<g id="edge2" class="edge">
<title>coordinator&#45;&gt;webui</title>
<path fill="none" stroke="black" d="M116.97,-278.63C123.24,-283.9 129.12,-290.33 132.58,-297.76 139.32,-312.27 139.32,-319.26 132.58,-333.76 130.28,-338.69 126.93,-343.18 123.1,-347.18"/>
<polygon fill="black" stroke="black" points="120.98,-344.38 115.89,-353.67 125.66,-349.58 120.98,-344.38"/>
<text xml:space="preserve" text-anchor="middle" x="159.76" y="-311.46" font-family="Inter" font-size="14.00">serves</text>
</g>
<!-- host -->
<g id="node3" class="node">
<title>host</title>
<ellipse fill="none" stroke="black" cx="64.58" cy="-18.38" rx="33.06" ry="18.38"/>
<text xml:space="preserve" text-anchor="middle" x="64.58" y="-14.08" font-family="Inter" font-size="14.00">Host</text>
</g>
<!-- coordinator&#45;&gt;host -->
<g id="edge5" class="edge">
<title>coordinator&#45;&gt;host</title>
<path fill="none" stroke="black" d="M62.41,-244.39C54.15,-238.9 45.49,-232.28 38.58,-224.99 19.25,-204.63 13.38,-198.03 5.83,-170.99 -1.62,-144.36 -2.1,-135.26 5.83,-108.77 13.06,-84.6 29.16,-60.91 42.68,-44"/>
<polygon fill="black" stroke="black" points="45.2,-46.44 48.88,-36.51 39.81,-41.98 45.2,-46.44"/>
<text xml:space="preserve" text-anchor="middle" x="46.7" y="-135.58" font-family="Inter" font-size="14.00">WOL startup</text>
</g>
<!-- agent -->
<g id="node4" class="node">
<title>agent</title>
<ellipse fill="none" stroke="black" cx="152.58" cy="-139.88" rx="56.39" ry="31.11"/>
<text xml:space="preserve" text-anchor="middle" x="152.58" y="-144.58" font-family="Inter" font-size="14.00">Agent</text>
<text xml:space="preserve" text-anchor="middle" x="152.58" y="-126.58" font-family="Inter" font-size="14.00">1 per host</text>
</g>
<!-- coordinator&#45;&gt;agent -->
<g id="edge4" class="edge">
<title>coordinator&#45;&gt;agent</title>
<path fill="none" stroke="black" d="M63.88,-244.18C57.53,-238.92 51.58,-232.47 48.08,-224.99 41.29,-210.51 39.45,-202.47 48.08,-188.99 49.72,-186.42 73.72,-175.29 98.31,-164.39"/>
<polygon fill="black" stroke="black" points="99.69,-167.6 107.43,-160.36 96.87,-161.2 99.69,-167.6"/>
<text xml:space="preserve" text-anchor="middle" x="80.33" y="-202.69" font-family="Inter" font-size="14.00">shutdown</text>
</g>
<!-- coordinator&#45;&gt;agent -->
<g id="edge8" class="edge">
<title>coordinator&#45;&gt;agent</title>
<path fill="none" stroke="black" stroke-dasharray="5,2" d="M101.94,-242.97C105.48,-237.32 109.31,-230.96 112.58,-224.99 120.3,-210.86 128.07,-194.99 134.68,-180.88"/>
<polygon fill="black" stroke="black" points="137.83,-182.4 138.85,-171.86 131.47,-179.46 137.83,-182.4"/>
<text xml:space="preserve" text-anchor="middle" x="152.84" y="-211.69" font-family="Inter" font-size="14.00">WOL</text>
<text xml:space="preserve" text-anchor="middle" x="152.84" y="-193.69" font-family="Inter" font-size="14.00">startup</text>
</g>
<!-- host&#45;&gt;agent -->
<g id="edge1" class="edge">
<title>host&#45;&gt;agent</title>
<path fill="none" stroke="black" d="M92.82,-28.5C106.07,-34.12 121,-42.62 130.58,-54.77 140.18,-66.96 145.61,-82.92 148.68,-97.66"/>
<polygon fill="black" stroke="black" points="145.17,-97.87 150.34,-107.12 152.06,-96.67 145.17,-97.87"/>
<text xml:space="preserve" text-anchor="middle" x="211.38" y="-77.47" font-family="Inter" font-size="14.00">starts agent service</text>
<text xml:space="preserve" text-anchor="middle" x="211.38" y="-59.47" font-family="Inter" font-size="14.00">(on host boot)</text>
</g>
<!-- agent&#45;&gt;coordinator -->
<g id="edge7" class="edge">
<title>agent&#45;&gt;coordinator</title>
<path fill="none" stroke="black" d="M174.26,-168.73C184.89,-186 193.17,-208.04 181.58,-224.99 175.19,-234.33 165.94,-241.21 155.77,-246.27"/>
<polygon fill="black" stroke="black" points="154.55,-242.98 146.74,-250.15 157.31,-249.41 154.55,-242.98"/>
<text xml:space="preserve" text-anchor="middle" x="232.58" y="-211.69" font-family="Inter" font-size="14.00">reports status</text>
<text xml:space="preserve" text-anchor="middle" x="232.58" y="-193.69" font-family="Inter" font-size="14.00">(host online)</text>
</g>
<!-- agent&#45;&gt;host -->
<g id="edge6" class="edge">
<title>agent&#45;&gt;host</title>
<path fill="none" stroke="black" d="M108.24,-120.55C88.14,-111.25 67.62,-100 62.08,-90.77 54.44,-78.06 54.48,-61.66 56.69,-47.78"/>
<polygon fill="black" stroke="black" points="60.05,-48.84 58.64,-38.34 53.19,-47.43 60.05,-48.84"/>
<text xml:space="preserve" text-anchor="middle" x="94.33" y="-77.47" font-family="Inter" font-size="14.00">executes</text>
<text xml:space="preserve" text-anchor="middle" x="94.33" y="-59.47" font-family="Inter" font-size="14.00">shutdown</text>
</g>
</g>
</svg>
