<?xml version="1.0" encoding="UTF-8" standalone="no"?>
<!DOCTYPE svg PUBLIC "-//W3C//DTD SVG 1.1//EN"
 "http://www.w3.org/Graphics/SVG/1.1/DTD/svg11.dtd">
<!-- Generated by graphviz version 14.1.1 (0)
 -->
<!-- Title: HostLifecycle Pages: 1 -->
<svg width="535pt" height="447pt"
 viewBox="0.00 0.00 535.00 447.00" xmlns="http://www.w3.org/2000/svg" xmlns:xlink="http://www.w3.org/1999/xlink">
<g id="graph0" class="graph" transform="scale(1 1) rotate(0) translate(4 443.45)">
<title>HostLifecycle</title>
<polygon fill="white" stroke="none" points="-4,4 -4,-443.45 530.62,-443.45 530.62,4 -4,4"/>
<!-- webui -->
<g id="node1" class="node">
<title>webui</title>
<ellipse fill="none" stroke="black" cx="42.07" cy="-408.33" rx="42.07" ry="18.38"/>
<text xml:space="preserve" text-anchor="middle" x="42.07" y="-404.03" font-family="Inter" font-size="14.00">WebUI</text>
</g>
<!-- coordinator -->
<g id="node4" class="node">
<title>coordinator</title>
<ellipse fill="none" stroke="black" cx="169.07" cy="-274.11" rx="66.47" ry="18.38"/>
<text xml:space="preserve" text-anchor="middle" x="169.07" y="-269.81" font-family="Inter" font-size="14.00">Coordinator</text>
</g>
<!-- webui&#45;&gt;coordinator -->
<g id="edge4" class="edge">
<title>webui&#45;&gt;coordinator</title>
<path fill="none" stroke="black" d="M35.71,-389.83C30.25,-371.52 25.21,-342.77 38.82,-323.22 52.44,-303.67 74.96,-292.05 97.47,-285.14"/>
<polygon fill="black" stroke="black" points="98.31,-288.54 107.02,-282.52 96.45,-281.79 98.31,-288.54"/>
<text xml:space="preserve" text-anchor="middle" x="90.95" y="-345.92" font-family="Inter" font-size="14.00">request/release</text>
<text xml:space="preserve" text-anchor="middle" x="90.95" y="-327.92" font-family="Inter" font-size="14.00">leases</text>
</g>
<!-- client -->
<g id="node2" class="node">
<title>client</title>
<ellipse fill="none" stroke="black" cx="311.07" cy="-408.33" rx="208.6" ry="31.11"/>
<text xml:space="preserve" text-anchor="middle" x="311.07" y="-413.03" font-family="Inter" font-size="14.00">Client (Script)</text>
<text xml:space="preserve" text-anchor="middle" x="311.07" y="-395.03" font-family="Inter" font-size="14.00">1 per task (e.g. backup of different folders)</text>
</g>
<!-- client&#45;&gt;coordinator -->
<g id="edge3" class="edge">
<title>client&#45;&gt;coordinator</title>
<path fill="none" stroke="black" d="M278.85,-377.33C253.64,-353.85 219.01,-321.6 195.43,-299.65"/>
<polygon fill="black" stroke="black" points="198.09,-297.35 188.39,-293.09 193.32,-302.47 198.09,-297.35"/>
<text xml:space="preserve" text-anchor="middle" x="309.09" y="-345.92" font-family="Inter" font-size="14.00">request/release</text>
<text xml:space="preserve" text-anchor="middle" x="309.09" y="-327.92" font-family="Inter" font-size="14.00">leases</text>
</g>
<!-- direct_control -->
<g id="node3" class="node">
<title>direct_control</title>
<ellipse fill="none" stroke="black" cx="450.07" cy="-274.11" rx="76.54" ry="31.11"/>
<text xml:space="preserve" text-anchor="middle" x="450.07" y="-278.81" font-family="Inter" font-size="14.00">Direct Control</text>
<text xml:space="preserve" text-anchor="middle" x="450.07" y="-260.81" font-family="Inter" font-size="14.00">(Script)</text>
</g>
<!-- host -->
<g id="node5" class="node">
<title>host</title>
<ellipse fill="none" stroke="black" cx="263.07" cy="-18.38" rx="33.06" ry="18.38"/>
<text xml:space="preserve" text-anchor="middle" x="263.07" y="-14.08" font-family="Inter" font-size="14.00">Host</text>
</g>
<!-- direct_control&#45;&gt;host -->
<g id="edge5" class="edge">
<title>direct_control&#45;&gt;host</title>
<path fill="none" stroke="black" d="M471.15,-243.71C474.42,-237.77 477.3,-231.38 479.07,-224.99 483.36,-209.58 482.31,-204.66 479.07,-188.99 465.91,-125.35 471.13,-96.22 421.07,-54.77 403.89,-40.54 347.29,-30.36 306.75,-24.67"/>
<polygon fill="black" stroke="black" points="307.4,-21.23 297.02,-23.35 306.46,-28.16 307.4,-21.23"/>
<text xml:space="preserve" text-anchor="middle" x="498.48" y="-144.58" font-family="Inter" font-size="14.00">WOL</text>
<text xml:space="preserve" text-anchor="middle" x="498.48" y="-126.58" font-family="Inter" font-size="14.00">startup</text>
</g>
<!-- agent -->
<g id="node6" class="node">
<title>agent</title>
<ellipse fill="none" stroke="black" cx="266.07" cy="-139.88" rx="56.39" ry="31.11"/>
<text xml:space="preserve" text-anchor="middle" x="266.07" y="-144.58" font-family="Inter" font-size="14.00">Agent</text>
<text xml:space="preserve" text-anchor="middle" x="266.07" y="-126.58" font-family="Inter" font-size="14.00">1 per host</text>
</g>
<!-- direct_control&#45;&gt;agent -->
<g id="edge6" class="edge">
<title>direct_control&#45;&gt;agent</title>
<path fill="none" stroke="black" d="M424.54,-244.29C403.67,-220.82 377.12,-191.21 374.07,-188.99 358.94,-178.02 340.9,-168.76 323.94,-161.39"/>
<polygon fill="black" stroke="black" points="325.53,-158.26 314.95,-157.63 322.83,-164.72 325.53,-158.26"/>
<text xml:space="preserve" text-anchor="middle" x="440.82" y="-211.69" font-family="Inter" font-size="14.00">ask status/</text>
<text xml:space="preserve" text-anchor="middle" x="440.82" y="-193.69" font-family="Inter" font-size="14.00">shutdown</text>
</g>
<!-- coordinator&#45;&gt;webui -->
<g id="edge2" class="edge">
<title>coordinator&#45;&gt;webui</title>
<path fill="none" stroke="black" d="M169.15,-292.89C168.26,-311.71 163.99,-341.15 147.07,-359.22 129.78,-377.69 116.09,-366.73 93.07,-377.22 86.96,-380.01 80.64,-383.33 74.63,-386.74"/>
<polygon fill="black" stroke="black" points="73.03,-383.62 66.18,-391.71 76.57,-389.66 73.03,-383.62"/>
<text xml:space="preserve" text-anchor="middle" x="186.83" y="-336.92" font-family="Inter" font-size="14.00">serves</text>
</g>
<!-- coordinator&#45;&gt;host -->
<g id="edge7" class="edge">
<title>coordinator&#45;&gt;host</title>
<path fill="none" stroke="black" d="M136.89,-257.68C124.24,-249.81 111.09,-238.91 104.07,-224.99 92,-201.03 107.85,-121.49 116.32,-108.77 141.84,-70.46 189.91,-45.86 224.08,-32.36"/>
<polygon fill="black" stroke="black" points="225.11,-35.71 233.22,-28.9 222.63,-29.16 225.11,-35.71"/>
<text xml:space="preserve" text-anchor="middle" x="158.7" y="-144.58" font-family="Inter" font-size="14.00">WOL startup</text>
<text xml:space="preserve" text-anchor="middle" x="158.7" y="-126.58" font-family="Inter" font-size="14.00">(if ≥1 leases)</text>
</g>
<!-- coordinator&#45;&gt;agent -->
<g id="edge8" class="edge">
<title>coordinator&#45;&gt;agent</title>
<path fill="none" stroke="black" d="M142.14,-256.82C131.38,-248.73 120.17,-237.91 114.32,-224.99 107.73,-210.42 104.87,-201.91 114.32,-188.99 115.07,-187.98 164.19,-172.51 206.34,-159.39"/>
<polygon fill="black" stroke="black" points="207.2,-162.78 215.71,-156.47 205.12,-156.1 207.2,-162.78"/>
<text xml:space="preserve" text-anchor="middle" x="158.2" y="-211.69" font-family="Inter" font-size="14.00">shutdown</text>
<text xml:space="preserve" text-anchor="middle" x="158.2" y="-193.69" font-family="Inter" font-size="14.00">(if =0 leases)</text>
</g>
<!-- coordinator&#45;&gt;agent -->
<g id="edge10" class="edge">
<title>coordinator&#45;&gt;agent</title>
<path fill="none" stroke="black" stroke-dasharray="5,2" d="M181.1,-255.82C187.41,-246.69 195.23,-235.28 202.07,-224.99 212.63,-209.14 213.98,-204.29 225.32,-188.99 228.26,-185.03 231.43,-180.97 234.66,-176.97"/>
<polygon fill="black" stroke="black" points="237.12,-179.48 240.78,-169.54 231.72,-175.03 237.12,-179.48"/>
<text xml:space="preserve" text-anchor="middle" x="248.2" y="-211.69" font-family="Inter" font-size="14.00">WOL</text>
<text xml:space="preserve" text-anchor="middle" x="248.2" y="-193.69" font-family="Inter" font-size="14.00">startup</text>
</g>
<!-- host&#45;&gt;agent -->
<g id="edge1" class="edge">
<title>host&#45;&gt;agent</title>
<path fill="none" stroke="black" d="M275.88,-35.75C279.6,-41.45 283.17,-48.09 285.07,-54.77 289.13,-68.97 287.24,-84.71 283.38,-98.7"/>
<polygon fill="black" stroke="black" points="280.11,-97.45 280.4,-108.04 286.78,-99.58 280.11,-97.45"/>
<text xml:space="preserve" text-anchor="middle" x="352.21" y="-77.47" font-family="Inter" font-size="14.00">starts agent service</text>
<text xml:space="preserve" text-anchor="middle" x="352.21" y="-59.47" font-family="Inter" font-size="14.00">(on host boot)</text>
</g>
<!-- agent&#45;&gt;coordinator -->
<g id="edge11" class="edge">
<title>agent&#45;&gt;coordinator</title>
<path fill="none" stroke="black" d="M276,-170.68C279.83,-187.82 281.18,-209.06 271.07,-224.99 261.61,-239.92 246.15,-250.3 230.09,-257.48"/>
<polygon fill="black" stroke="black" points="228.87,-254.2 220.91,-261.19 231.49,-260.69 228.87,-254.2"/>
<text xml:space="preserve" text-anchor="middle" x="324.22" y="-211.69" font-family="Inter" font-size="14.00">reports status</text>
<text xml:space="preserve" text-anchor="middle" x="324.22" y="-193.69" font-family="Inter" font-size="14.00">(host online)</text>
</g>
<!-- agent&#45;&gt;host -->
<g id="edge9" class="edge">
<title>agent&#45;&gt;host</title>
<path fill="none" stroke="black" d="M233.09,-114.19C226.38,-107.41 220.26,-99.49 216.57,-90.77 210.35,-76.03 209.47,-69.11 216.57,-54.77 219.77,-48.33 224.75,-42.74 230.3,-38.03"/>
<polygon fill="black" stroke="black" points="232.14,-41.02 238.08,-32.25 227.97,-35.4 232.14,-41.02"/>
<text xml:space="preserve" text-anchor="middle" x="248.82" y="-77.47" font-family="Inter" font-size="14.00">executes</text>
<text xml:space="preserve" text-anchor="middle" x="248.82" y="-59.47" font-family="Inter" font-size="14.00">shutdown</text>
</g>
</g>
</svg>
